<?xml version="1.0" encoding="iso-8859-1"?>
<!-- Generator: Adobe Illustrator 19.0.0, SVG Export Plug-In . SVG Version: 6.00 Build 0)  -->
<svg version="1.1" id="Layer_1" xmlns="http://www.w3.org/2000/svg" xmlns:xlink="http://www.w3.org/1999/xlink" x="0px" y="0px"
	 viewBox="0 0 481.882 481.882" style="enable-background:new 0 0 481.882 481.882;" xml:space="preserve">
<path style="fill:#64798A;" d="M458.993,135.529V440.32H22.889V135.529c0-6.626,4.819-11.445,11.445-11.445h413.816
	C454.174,124.085,458.993,128.904,458.993,135.529z"/>
<rect x="48.791" y="149.986" style="fill:#EBF0F3;" width="383.699" height="263.831"/>
<rect x="63.849" y="124.085" style="fill:#3A556A;" width="353.581" height="26.504"/>
<rect x="63.849" y="149.986" style="fill:#E1E6E9;" width="353.581" height="126.494"/>
<rect x="77.101" style="fill:#FFFFFF;" width="327.68" height="263.831"/>
<rect y="440.32" style="fill:#EBF0F3;" width="481.882" height="31.322"/>
<g>
	<polygon style="fill:#D5D6DB;" points="481.28,471.642 0.602,471.642 33.732,481.882 448.151,481.882 	"/>
	<rect x="207.209" y="452.367" style="fill:#D5D6DB;" width="67.464" height="7.228"/>
</g>
<path style="fill:#E56353;" d="M367.435,24.094c-10.24,0-18.673,8.433-18.673,18.673c0,2.409,0.602,4.819,1.205,7.228
	l-66.861,48.791c-3.012-3.012-7.228-4.819-12.047-4.819c-6.626,0-12.047,3.614-15.661,8.433l-56.621-19.878c0-0.602,0-1.205,0-1.807
	c0-10.24-8.433-18.673-18.673-18.673c-10.24,0-18.673,8.433-18.673,18.673c0,3.614,1.205,7.831,3.012,10.842l-40.96,44.574
	c-2.409-1.205-5.421-2.409-9.035-2.409c-10.24,0-18.673,8.433-18.673,18.673s8.433,18.673,18.673,18.673s18.673-8.433,18.673-18.673
	c0-3.614-1.205-7.831-3.012-10.842l40.358-44.574c2.409,1.205,5.421,2.409,9.035,2.409c6.626,0,12.047-3.614,15.661-8.433
	l56.621,19.878c0,0.602,0,1.205,0,1.807c0,10.24,8.433,18.673,18.673,18.673s18.673-8.433,18.673-18.673
	c0-2.409-0.602-4.819-1.205-7.228l66.861-48.188c3.012,3.012,7.228,4.819,12.047,4.819c10.24,0,18.673-8.433,18.673-18.673
	C386.108,32.527,377.675,24.094,367.435,24.094z M114.447,162.033c-5.421,0-10.24-4.216-10.24-10.24
	c0-5.421,4.216-10.24,10.24-10.24s10.24,4.216,10.24,10.24C124.687,157.816,120.471,162.033,114.447,162.033z M180.104,90.353
	c-5.421,0-10.24-4.216-10.24-10.24c0-5.421,4.216-10.24,10.24-10.24c5.421,0,10.24,4.216,10.24,10.24
	C189.741,86.136,185.525,90.353,180.104,90.353z M271.059,122.88c-5.421,0-10.24-4.216-10.24-10.24c0-5.421,4.216-10.24,10.24-10.24
	c5.421,0,10.24,4.216,10.24,10.24C280.696,118.664,276.48,122.88,271.059,122.88z M367.435,53.007c-5.421,0-10.24-4.216-10.24-10.24
	c0-5.421,4.216-10.24,10.24-10.24s10.24,4.216,10.24,10.24C377.073,48.188,372.856,53.007,367.435,53.007z"/>
<rect x="102.4" y="236.122" style="fill:#2D93BA;" width="23.492" height="9.638"/>
<rect x="102.4" y="181.911" style="fill:#27A2DB;" width="23.492" height="54.212"/>
<rect x="169.261" y="127.096" style="fill:#FCD462;" width="23.492" height="109.628"/>
<rect x="169.261" y="236.122" style="fill:#F6C358;" width="23.492" height="9.638"/>
<rect x="260.819" y="144.565" style="fill:#64798A;" width="23.492" height="91.558"/>
<rect x="260.819" y="236.122" style="fill:#3A556A;" width="23.492" height="9.638"/>
<rect x="351.774" y="236.122" style="fill:#3EA69B;" width="23.492" height="9.638"/>
<rect x="351.774" y="82.522" style="fill:#44C4A1;" width="23.492" height="154.202"/>
<rect x="69.271" y="304.791" style="fill:#FCD462;" width="89.148" height="77.704"/>
<rect x="196.367" y="304.791" style="fill:#44C4A1;" width="89.148" height="77.704"/>
<rect x="323.464" y="304.791" style="fill:#E56353;" width="89.148" height="77.704"/>
<rect x="69.271" y="373.459" style="fill:#F6C358;" width="89.148" height="9.035"/>
<rect x="196.367" y="373.459" style="fill:#3EA69B;" width="89.148" height="9.035"/>
<rect x="323.464" y="373.459" style="fill:#D15241;" width="89.148" height="9.035"/>
<g>
</g>
<g>
</g>
<g>
</g>
<g>
</g>
<g>
</g>
<g>
</g>
<g>
</g>
<g>
</g>
<g>
</g>
<g>
</g>
<g>
</g>
<g>
</g>
<g>
</g>
<g>
</g>
<g>
</g>
</svg>
