<svg enable-background="new 0 0 100 100" height="512" viewBox="0 0 100 100" width="512" xmlns="http://www.w3.org/2000/svg"><circle cx="50" cy="35.732" fill="#efba1b" r="11.694"/><circle cx="50" cy="35.732" fill="#feed32" r="8.569"/><path d="m49.5663147 41.8236656v-.9266396c-.8360291-.0497856-1.4650497-.3276024-1.8874512-.8337097-.4225273-.5061035-.6337929-1.2355995-.6337929-2.1889992v-.2644005h1.6469078c0 .0361137-.0023193.0905418-.0067062.1627693-.0046425.0722275-.0068359.1243324-.0068359.1558037 0 .4790192.0767403.8471222.230484 1.104557.1534805.2576981.3929901.4158249.718399.4746361v-3.0771332c-.8901978-.487793-1.5248947-.9815178-1.9044724-1.4806557-.3795815-.4991417-.5693054-1.0854721-.5693054-1.7587318 0-.781601.2134552-1.405077.6404991-1.8706856.4269142-.4650898 1.0176277-.7160797 1.772274-.7521935v-.9283772h.7658654v.942049c.7769585.0090275 1.3689613.2259674 1.7756271.6505604.4065361.424593.6099319 1.0413609.6099319 1.8500462v.1965599h-1.6062775v-.1421318c0-.3840942-.073391-.6846085-.2201653-.9015503-.146904-.2166786-.3514633-.3319855-.6134148-.3456573v2.7719765c1.0301399.5331917 1.7338371 1.0416183 2.1110954 1.5250244s.5659523 1.0865021.5659523 1.8095474c0 .8899422-.2248077 1.58358-.6742935 2.0804024-.4496117.4970779-1.0991402.7705078-1.9484558.8202934v.9266396h-.7658651zm.0610046-7.5346527-.0068359-2.4126453c-.2620811.0227013-.4631538.1300106-.6032257.321928-.1400681.1919174-.2099724.4552879-.2099724.7895966 0 .2530556.0665512.4867592.199913.7013779.1332322.2146186.3398552.4145316.620121.5997428zm.6505623 5.2186699c.3027077-.0544281.533062-.1865005.6913185-.3964729.158123-.2102356.2371864-.4890823.2371864-.8370628 0-.343338-.0677109-.6257973-.2032661-.8471222s-.377388-.4429054-.7252388-.6642303z" fill="#efba1b"/><circle cx="67.341" cy="21.456" fill="#efba1b" r="7.118"/><circle cx="67.341" cy="21.456" fill="#feed32" r="5.216"/><path d="m67.0773544 25.1641617v-.5640469c-.5088882-.030304-.8917694-.1994114-1.1488876-.5074787-.2571945-.3080654-.385788-.7521095-.385788-1.3324432v-.1609421h1.0024719c0 .0219822-.0014114.0551128-.0040817.0990772-.0028305.0439644-.0041656.0756817-.0041656.0948391 0 .2915802.0467148.5156422.1402969.6723442.0934219.1568604.239212.2531109.437294.2889118v-1.8730526c-.5418701-.2969189-.9282074-.5974483-1.159256-.9012756s-.3465347-.6607265-.3465347-1.0705395c0-.4757614.1299286-.8552704.3898697-1.1386852.2598648-.2831001.6194305-.4358788 1.0787811-.4578609v-.5651016h.4661865v.5734234c.4729309.005497.8332901.1375465 1.0808258.3959961.2474594.2584496.3712616.6338768.3712616 1.1261234v.119648h-.9777374v-.0865173c0-.2337971-.0446777-.4167213-.1340179-.5487728-.0894165-.1318932-.2139359-.2020798-.3733826-.2104015v1.6872997c.6270447.3245544 1.0553894.6340351 1.2850189.9282837.2296371.2942486.3444977.6613541.3444977 1.1014709 0 .541708-.1368408.9639263-.4104385 1.2663403-.2736816.3025703-.6690521.4690094-1.1860275.4993134v.5640469h-.4661866zm.0371399-4.5863438-.0041656-1.4685764c-.159523.0138168-.2819214.0791359-.3671799.1959572-.0852585.1168194-.1278152.2771339-.1278152.4806271 0 .1540337.0405121.2962914.1216888.4269295.0811005.130638.206871.252325.3774719.3650626zm.3959961 3.1766052c.1842575-.0331306.3244705-.1135235.4207993-.2413349.0962524-.1279697.1443787-.2977047.1443787-.5095196 0-.2089882-.041214-.3809223-.1237259-.5156422s-.2297134-.269598-.441452-.4043179v1.6708146z" fill="#efba1b"/><circle cx="31.257" cy="26.963" fill="#efba1b" r="5.338"/><circle cx="31.257" cy="26.963" fill="#feed32" r="3.912"/><path d="m31.0592556 29.7440567v-.4230061c-.3816414-.0227261-.668787-.1495476-.8616085-.3805809-.1928825-.2310352-.2893238-.564043-.2893238-.9992638v-.1206989h.7518044c0 .0164871-.0010605.0413322-.0030632.0743046-.0021191.0329704-.0031204.056757-.0031204.0711231 0 .2186699.0350323.3867054.1052151.5042229.0700626.1176376.1793976.1898212.3279457.2166691v-1.4046917c-.4063702-.2226734-.696106-.4480553-.869381-.6759109-.173275-.2278538-.2598839-.4955101-.2598839-.8028488 0-.3567963.0974407-.641407.2923832-.8539543.1948833-.2123108.4645424-.3268852.8090324-.3433723v-.4237977h.3496132v.4300385c.3546753.0041218.6249218.1031532.8105602.296978.1855812.1938229.2784309.4753742.2784309.8445339v.0897293h-.7332554v-.0648842c0-.1753349-.0335026-.3125191-.1005039-.4115505-.0670605-.0989132-.1604404-.1515503-.2800198-.1577911v1.2653885c.4702511.2433987.7914867.4754925.9637012.6961632.1722145.2206726.2583542.4959812.2583542.8260479 0 .4062519-.102623.7228928-.3078117.949688-.205246.2269135-.5017509.3517323-.8894558.3744583v.4230061h-.3496131zm.0278492-3.439518-.0031204-1.1013565c-.1196384.0103626-.2114296.0593472-.2753696.1469574-.06394.0876083-.0958519.2078362-.0958519.360445 0 .1155167.0303802.2222023.091259.3201752.0608215.097971.1551418.18923.2830829.2737789zm.2969761 2.382288c.1381836-.024847.2433395-.0851364.3155823-.1809883.0721817-.0959702.1082745-.2232628.1082745-.3821125 0-.1567326-.0309105-.2856731-.0927906-.3867054-.0618801-.1010342-.1722755-.2021847-.3310661-.3032188v1.253025z" fill="#efba1b"/><circle cx="43.373" cy="9.625" fill="#efba1b" r="4.625"/><circle cx="43.373" cy="9.625" fill="#feed32" r="3.389"/><path d="m43.2019463 12.0343065v-.366478c-.3306427-.0196896-.5794144-.1295633-.7464714-.3297234-.1671066-.20016-.2506561-.4886684-.2506561-.8657284v-.1045685h.6513367c0 .0142822-.0009193.0358086-.002655.064373-.0018349.0285654-.0027046.0491734-.0027046.0616198 0 .1894484.0303535.3350286.091156.4368429.0606995.1019163.155426.1644535.2841187.1877136v-1.2169779c-.3520622-.1929169-.6030807-.3881798-.7532005-.5855856s-.2251551-.4292936-.2251551-.6955614c0-.3091154.0844193-.5556946.2533112-.7398376.1688423-.183939.402462-.2832026.7009201-.2974854v-.3671646h.3028908v.3725715c.3072815.0035706.5414124.0893683.7022438.2572904.1607819.167922.2412224.4118481.2412224.7316761v.0777378h-.6352692v-.0562116c0-.151906-.0290222-.2707577-.0870705-.356555-.0581017-.0856953-.1389999-.1312971-.2425995-.1367044v1.0962896c.4074097.2108727.6857147.4119511.834919.6031332.1492004.1911821.2238274.4297018.2238274.7156591 0 .351963-.0889091.6262913-.2666779.8227787-.1778183.1965895-.4347.3047285-.7705956.3244181v.366478zm.0241241-2.9798832-.0027008-.9541788c-.103653.0089779-.1831741.0514174-.2385712.1273193s-.0830421.1800623-.0830421.3122787c0 .1000795.0263214.1925087.0790634.2773876.0526924.084879.1344109.1639434.2452507.2371932zm.2572937 2.0639344c.1197166-.0215263.2108192-.0737591.273407-.1568022.0625381-.0831451.0938072-.1934271.0938072-.3310499 0-.1357861-.0267792-.2474966-.0803909-.3350286s-.1492538-.1751652-.2868233-.2626972z" fill="#efba1b"/><path d="m88.6811066 45.7443428h-77.3622265l32.5590305 27.4943581v21.7612991l12.2441673-8.3485107v-13.4125901z" fill="#db584d"/><path d="m87.9133759 41.9173851h-75.6202469c-2.0107727 0-3.8270397 1.4583092-4.0161638 3.4602013-.2142038 2.267765 1.5837641 4.1937714 3.8097095 4.1937714h75.6201963c2.0107727 0 3.827095-1.458416 4.0161667-3.4603081.2142029-2.2677651-1.5837173-4.1936646-3.8096618-4.1936646z" fill="#cd5148"/></svg>