<svg id="Capa_1" enable-background="new 0 0 494.828 494.828" height="512" viewBox="0 0 494.828 494.828" width="512" xmlns="http://www.w3.org/2000/svg"><g><path d="m451.062 91.51h-411.214c-5.825 0-10.556 4.704-10.589 10.528v278.999h432.271v-278.999c0-5.79-4.677-10.494-10.468-10.528z" fill="#3a556a"/><path d="m53.866 114.587h383.18v243.374h-383.18z" fill="#27a2db"/><path d="m0 373.998v5.325c0 13.252 10.743 23.995 23.995 23.995h446.839c13.252 0 23.995-10.743 23.995-23.995v-5.325z" fill="#2f4859"/><circle cx="245.455" cy="236.274" fill="#fcd462" r="71.861"/><circle cx="245.455" cy="236.274" fill="#f7be56" r="59.925"/><path d="m267.858 241.599c-2.128-2.87-5.009-5.095-8.325-6.427-3.674-1.437-7.462-2.563-11.324-3.367v-19.955c2.814.193 5.512 1.192 7.774 2.877 2.62 2.277 4.191 5.53 4.346 8.998l8.019-.612c.03-3.471-.903-6.882-2.693-9.855-1.985-2.999-4.85-5.309-8.202-6.611-2.874-1.154-5.909-1.856-8.998-2.081v-9.855h-6.121v9.855c-3.106.11-6.17.752-9.059 1.898-3.199 1.18-5.956 3.318-7.896 6.121-1.742 2.718-2.637 5.893-2.571 9.12-.034 2.75.732 5.451 2.204 7.774 1.659 2.604 3.983 4.717 6.733 6.121 3.428 1.577 7.021 2.768 10.712 3.55v22.526c-1.829-.237-3.619-.71-5.325-1.408-2.449-1.042-4.566-2.736-6.121-4.897-1.535-2.392-2.46-5.125-2.693-7.957l-7.835.673c.021 4.104 1.21 8.116 3.428 11.569 2.214 3.331 5.367 5.93 9.059 7.468 3.058 1.188 6.277 1.911 9.549 2.142v8.753h6.121v-8.814c3.75-.048 7.453-.839 10.896-2.326 3.345-1.49 6.207-3.886 8.263-6.917 1.84-2.799 2.818-6.077 2.816-9.426.003-3.189-.957-6.304-2.757-8.937zm-34.522-14.874c-1.604-1.4-2.501-3.442-2.448-5.57.019-2.642 1.291-5.118 3.428-6.672 2.421-1.654 5.271-2.569 8.202-2.632v18.363c-3.26-.55-6.38-1.736-9.182-3.489zm27.361 29.871c-1.424 1.765-3.31 3.1-5.448 3.856-2.181.79-4.475 1.224-6.794 1.285v-21.363c2.235.541 4.442 1.194 6.611 1.959 2.194.688 4.162 1.957 5.693 3.673 1.125 1.5 1.727 3.328 1.714 5.203-.01 1.938-.631 3.823-1.776 5.387z" fill="#fcd462"/><path d="m327.417 263.941 20.26-9.794-58.578-11.263 11.324 58.518 9.793-20.261 29.504 29.504 17.2-17.139z" fill="#3a556a"/></g></svg>