<?xml version="1.0" encoding="iso-8859-1"?>
<!-- Generator: Adobe Illustrator 19.0.0, SVG Export Plug-In . SVG Version: 6.00 Build 0)  -->
<svg version="1.1" id="Layer_1" xmlns="http://www.w3.org/2000/svg" xmlns:xlink="http://www.w3.org/1999/xlink" x="0px" y="0px"
	 viewBox="0 0 491.535 491.535" style="enable-background:new 0 0 491.535 491.535;" xml:space="preserve">
<path style="fill:#D5D6DB;" d="M0,223.97v226.232c0,22.258,18.043,40.302,40.303,40.302c22.258,0,40.301-18.044,40.301-40.302
	V223.97H0z"/>
<path style="fill:#EBF0F3;" d="M77.537,63.946v170.166v180.869v36.755c0,21.411-17.357,38.769-38.767,38.769h38.767H368.64
	c22.46,0,40.666-18.207,40.666-40.665V63.946H77.537z"/>
<rect x="93.235" y="90.048" style="fill:#E56353;" width="293.325" height="18.376"/>
<rect x="93.235" y="126.697" style="fill:#64798A;" width="293.325" height="9.19"/>
<rect x="93.235" y="164.206" style="fill:#FFFFFF;" width="293.325" height="107.674"/>
<rect x="104.658" y="235.783" style="fill:#E56353;" width="16.947" height="28.436"/>
<rect x="127.493" y="193.472" style="fill:#27A2DB;" width="16.947" height="70.728"/>
<rect x="150.323" y="171.875" style="fill:#44C4A1;" width="16.947" height="92.314"/>
<rect x="173.158" y="214.167" style="fill:#FCD462;" width="16.947" height="50.033"/>
<rect x="104.658" y="258.26" style="fill:#D15241;" width="16.947" height="5.939"/>
<rect x="127.493" y="258.26" style="fill:#2D93BA;" width="16.947" height="5.939"/>
<rect x="150.328" y="258.26" style="fill:#3EA69B;" width="16.947" height="5.939"/>
<rect x="173.158" y="258.26" style="fill:#F6C358;" width="16.947" height="5.939"/>
<rect x="197.632" y="193.472" style="fill:#E56353;" width="16.947" height="70.728"/>
<rect x="220.467" y="218.037" style="fill:#27A2DB;" width="16.947" height="46.182"/>
<rect x="243.302" y="198.53" style="fill:#44C4A1;" width="16.947" height="65.669"/>
<rect x="266.138" y="176.775" style="fill:#FCD462;" width="16.947" height="87.45"/>
<rect x="197.632" y="258.26" style="fill:#D15241;" width="16.947" height="5.939"/>
<rect x="220.467" y="258.26" style="fill:#2D93BA;" width="16.947" height="5.939"/>
<rect x="243.302" y="258.26" style="fill:#3EA69B;" width="16.947" height="5.939"/>
<rect x="266.138" y="258.26" style="fill:#F6C358;" width="16.947" height="5.939"/>
<rect x="290.606" y="221.857" style="fill:#E56353;" width="16.947" height="42.342"/>
<rect x="313.446" y="191.239" style="fill:#27A2DB;" width="16.947" height="72.97"/>
<rect x="336.282" y="217.3" style="fill:#44C4A1;" width="16.947" height="46.894"/>
<rect x="359.117" y="176.775" style="fill:#FCD462;" width="16.947" height="87.45"/>
<rect x="290.606" y="258.26" style="fill:#D15241;" width="16.947" height="5.939"/>
<rect x="313.446" y="258.26" style="fill:#2D93BA;" width="16.947" height="5.939"/>
<rect x="336.282" y="258.26" style="fill:#3EA69B;" width="16.947" height="5.939"/>
<rect x="359.117" y="258.26" style="fill:#F6C358;" width="16.947" height="5.939"/>
<circle style="fill:#D5D6DB;" cx="395.315" cy="97.251" r="96.22"/>
<path style="fill:#FFFFFF;" d="M456.742,97.249c0-33.933-27.507-61.441-61.442-61.441c-33.933,0-61.44,27.508-61.44,61.441
	c0,30.935,22.886,56.458,52.635,60.739v19.171c0,4.863,3.943,8.805,8.805,8.805s8.805-3.942,8.805-8.805v-19.171
	C433.856,153.707,456.742,128.184,456.742,97.249z"/>
<g>
	<circle style="fill:#FCD462;" cx="395.315" cy="97.251" r="50.324"/>
	<circle style="fill:#FCD462;" cx="395.315" cy="97.251" r="50.324"/>
</g>
<path style="fill:#F6C358;" d="M352.947,105.218c0-27.792,22.53-50.322,50.322-50.322c11.865,0,22.75,4.132,31.355,11
	c-9.222-11.549-23.395-18.969-39.323-18.969c-27.792,0-50.322,22.53-50.322,50.322c0,15.927,7.42,30.101,18.969,39.322
	C357.078,127.968,352.947,117.083,352.947,105.218z"/>
<g>
	<rect x="93.235" y="292.052" style="fill:#64798A;" width="176.522" height="8.919"/>
	<rect x="93.235" y="326.269" style="fill:#64798A;" width="176.522" height="8.919"/>
	<rect x="93.235" y="360.506" style="fill:#64798A;" width="176.522" height="8.919"/>
	<rect x="93.235" y="394.708" style="fill:#64798A;" width="293.325" height="8.919"/>
	<rect x="93.235" y="428.961" style="fill:#64798A;" width="293.325" height="8.919"/>
	<rect x="93.235" y="463.162" style="fill:#64798A;" width="293.325" height="8.919"/>
</g>
<path style="fill:#E56353;" d="M333.926,375.082v-7.812c-9.78-0.997-18.559-4.886-26.327-11.661l7.812-9.31
	c5.992,5.208,12.158,8.308,18.515,9.31v-20.762c-8.064-1.925-13.969-4.459-17.714-7.598s-5.617-7.794-5.617-13.965
	c0-6.17,2.151-11.217,6.471-15.145c4.32-3.923,9.937-6.061,16.86-6.418v-5.352h6.845v5.456c7.847,0.575,15.267,3.248,22.26,8.03
	l-6.958,9.845c-4.712-3.353-9.806-5.421-15.301-6.209v20.117h0.322c8.204,1.929,14.23,4.533,18.08,7.812
	c3.858,3.283,5.783,8.047,5.783,14.287c0,6.244-2.212,11.33-6.636,15.249c-4.424,3.928-10.268,6.066-17.548,6.423v7.703H333.926z
	 M326.375,306.008c-1.82,1.602-2.726,3.601-2.726,5.992c0,2.391,0.714,4.28,2.142,5.669c1.42,1.393,4.137,2.73,8.134,4.015v-18.515
	C330.712,303.456,328.195,304.401,326.375,306.008z M348.905,352.931c1.994-1.637,2.996-3.706,2.996-6.205
	c0-2.495-0.784-4.476-2.351-5.939c-1.576-1.463-4.503-2.835-8.779-4.119v19.26C344.194,355.574,346.902,354.573,348.905,352.931z"/>
<g>
</g>
<g>
</g>
<g>
</g>
<g>
</g>
<g>
</g>
<g>
</g>
<g>
</g>
<g>
</g>
<g>
</g>
<g>
</g>
<g>
</g>
<g>
</g>
<g>
</g>
<g>
</g>
<g>
</g>
</svg>
