<svg id="Flat" height="512" viewBox="0 0 128 128" width="512" xmlns="http://www.w3.org/2000/svg"><path d="m54.794 94.032h18.32v6.941h-18.32z" fill="#9297ab"/><path d="m98.178 72.374-15.552-15.474-6.148 34.967 14.853 7.1a1.663 1.663 0 0 0 2.32-1.1l5.5-22.007a3.657 3.657 0 0 0 -.973-3.486z" fill="#b0b3c1"/><path d="m29.822 72.374a3.657 3.657 0 0 0 -.974 3.485l5.5 22.007a1.663 1.663 0 0 0 2.32 1.1l15.04-7.01-6.465-34.927z" fill="#b0b3c1"/><path d="m82.062 33.623c-5.676-22.972-18.108-31.623-18.108-31.623s-12.432 8.648-18.107 31.62c-5.073 20.534 3.674 54.239 5.588 61.163a1.729 1.729 0 0 0 1.665 1.269h21.7a1.729 1.729 0 0 0 1.668-1.266c1.92-6.924 10.666-40.629 5.594-61.163z" fill="#c1cdd3"/><path d="m82.062 33.623c-5.674-22.968-18.106-31.623-18.106-31.623a27.79 27.79 0 0 0 -3.977 3.674c4.139 4.471 10.506 13.3 14.129 27.949 5.674 22.977-5.947 62.427-5.947 62.427h6.644a1.728 1.728 0 0 0 1.668-1.267c1.914-6.923 10.66-40.623 5.589-61.16z" fill="#b0b3c1"/><path d="m80.933 29.517c-6.04-19.904-16.979-27.517-16.979-27.517s-10.938 7.613-16.978 27.517z" fill="#6bb3d9"/><path d="m80.933 29.513h-7.74c-3.748-12.336-9.378-19.95-13.111-23.957a27.624 27.624 0 0 1 3.874-3.556s10.934 7.614 16.977 27.513z" fill="#4fa4d1"/><circle cx="63.954" cy="48.934" fill="#ef5361" r="8.65" transform="matrix(.526 -.851 .851 .526 -11.294 77.611)"/><path d="m73.115 100.973h-18.321c-3.114 1.946-4.529 7.66-2.953 10.977.4.834.941 1.587 1.405 2.385a14.055 14.055 0 0 1 1.413 10.565 12.277 12.277 0 0 0 5.778-8.968 6.61 6.61 0 0 1 4.391 4.019 18.609 18.609 0 0 1 1.144 6.049 10.187 10.187 0 0 0 3.909-6.66c.354-2.761-.944-7.188 1.4-8.7a22.306 22.306 0 0 1 3.444 5.565s4.867-10.105-1.61-15.232z" fill="#ef5361"/><path d="m57.689 100.973h9.855c1.675 1.047 2.437 4.121 1.589 5.905-.213.448-.506.853-.756 1.283a7.554 7.554 0 0 0 -.76 5.684 6.608 6.608 0 0 1 -3.109-4.825 3.552 3.552 0 0 0 -2.361 2.163 9.973 9.973 0 0 0 -.616 3.253 5.482 5.482 0 0 1 -2.1-3.583c-.19-1.485.508-3.867-.75-4.677a12.014 12.014 0 0 0 -1.854 2.993s-2.622-5.441.862-8.196z" fill="#f2a846"/></svg>