<svg xmlns="http://www.w3.org/2000/svg" id="Icons" fill="#fff" height="512" viewBox="0 0 74 74" width="512"><path d="m53.891 62.86a1 1 0 0 1 -.57-1.823 24.191 24.191 0 0 0 2.239-1.747 1 1 0 1 1 1.321 1.5 26.3 26.3 0 0 1 -2.422 1.892 1 1 0 0 1 -.568.178z"></path><path d="m36.97 68.19a30.527 30.527 0 1 1 29.413-22.381 1 1 0 1 1 -1.926-.538 28.481 28.481 0 1 0 -17.557 19.142 1 1 0 1 1 .7 1.875 30.41 30.41 0 0 1 -10.63 1.902z"></path><path d="m60.949 55.87a1 1 0 0 1 -.807-1.589 24.646 24.646 0 0 0 1.558-2.422 1 1 0 0 1 1.743.982 26.682 26.682 0 0 1 -1.682 2.618 1 1 0 0 1 -.812.411z"></path><path d="m36.97 61.191a23.517 23.517 0 1 1 23.517-23.517 23.543 23.543 0 0 1 -23.517 23.517zm0-45.034a21.517 21.517 0 1 0 21.517 21.517 21.541 21.541 0 0 0 -21.517-21.517z"></path><path d="m36.97 20.4a1 1 0 0 1 -1-1v-15.726a1 1 0 1 1 2 0v15.726a1 1 0 0 1 -1 1z"></path><path d="m18.7 38.674h-15.73a1 1 0 1 1 0-2h15.73a1 1 0 1 1 0 2z"></path><path d="m36.97 72.674a1 1 0 0 1 -1-1v-15.729a1 1 0 1 1 2 0v15.729a1 1 0 0 1 -1 1z"></path><path d="m70.97 38.674h-15.73a1 1 0 0 1 0-2h15.73a1 1 0 0 1 0 2z"></path><path d="m36.97 38.3a6 6 0 0 1 -6.234-5.71 5.548 5.548 0 0 1 .068-.841 6.057 6.057 0 0 1 6.166-4.849 6.056 6.056 0 0 1 6.164 4.845 1 1 0 1 1 -1.973.329 4.355 4.355 0 0 0 -8.383 0 3.626 3.626 0 0 0 -.042.525 4 4 0 0 0 4.234 3.701 1 1 0 0 1 0 2z"></path><path d="m36.97 47.7a6.116 6.116 0 0 1 -6.165-4.85 1 1 0 0 1 1.974-.32 4.109 4.109 0 0 0 4.191 3.17 4.109 4.109 0 0 0 4.191-3.17 3.616 3.616 0 0 0 .039-.53 4 4 0 0 0 -4.233-3.7 1 1 0 0 1 0-2 5.991 5.991 0 0 1 6.233 5.7 5.515 5.515 0 0 1 -.067.839 6.118 6.118 0 0 1 -6.163 4.861z"></path><path d="m36.942 49.924a1 1 0 0 1 -1-1v-22.5a1 1 0 0 1 2 0v22.5a1 1 0 0 1 -1 1z"></path></svg>