<svg xmlns="http://www.w3.org/2000/svg" width="122" height="58" viewBox="0 0 122 58" fill="none"><path d="M1.47119 54.5231C1.86651 55.2476 2.3204 55.9235 2.70108 56.6237C2.61323 56.7258 2.52538 56.6918 2.45217 56.7064C2.23255 56.7356 2.09101 56.6529 1.97876 56.4535C1.75914 56.0548 1.51512 55.6658 1.27597 55.2768C1.22717 55.1942 1.1686 55.1164 1.11004 55.024C0.880656 55.1796 0.739122 55.4032 0.582947 55.6075C0.529261 55.6755 0.534141 55.7922 0.529261 55.8895C0.5195 56.084 0.529261 56.2785 0.52438 56.4779C0.5195 56.6626 0.475576 56.7064 0.294998 56.7112C0.0509741 56.7161 0.0021691 56.6772 0.0021691 56.439C-0.00271138 55.4276 0.0021691 54.4162 0.0021691 53.4048C0.0021691 53.3561 0.00216933 53.3075 0.0119303 53.2589C0.0216912 53.186 0.0704962 53.1373 0.138823 53.1373C0.251074 53.1325 0.368205 53.113 0.485337 53.1714C0.563424 53.3561 0.5195 53.5506 0.52438 53.7451C0.534141 54.0563 0.524381 54.3627 0.529261 54.6739C0.529261 54.7176 0.529261 54.7663 0.582947 54.7954C0.646393 54.8295 0.675676 54.7808 0.700078 54.7468C0.934341 54.4551 1.1686 54.1585 1.40287 53.8667C1.5444 53.6868 1.6957 53.5117 1.82747 53.327C1.92996 53.1811 2.06173 53.1082 2.23743 53.1276C2.31552 53.1373 2.39848 53.1276 2.46681 53.1276C2.5449 53.2346 2.47169 53.2929 2.42777 53.3513C2.21303 53.6187 1.98852 53.8813 1.77378 54.1439C1.67129 54.2654 1.5688 54.3967 1.47119 54.5231Z" fill="black"></path><path d="M63.7942 16.9265C63.926 17.0335 64.0627 17.1405 64.1944 17.2523C65.1071 18.0449 66.0588 18.7937 67.0788 19.4501C68.9675 20.6658 71.0271 21.3951 73.2526 21.682C73.6919 21.7404 74.1311 21.7841 74.5703 21.7939C76.2102 21.8328 77.8354 21.9738 79.4606 22.1731C81.3933 22.4114 83.3064 22.7663 85.1854 23.272C87.5475 23.9042 89.817 24.7697 91.9546 25.9756C94.7902 27.5753 97.1767 29.6711 99.0167 32.36C100.378 34.3439 101.345 36.5077 102.018 38.8077C102.516 40.5193 102.833 42.26 103.028 44.03C103.292 46.4028 103.297 48.7806 103.17 51.1632C103.063 53.2006 102.819 55.2234 102.501 57.2364C102.487 57.3288 102.492 57.4358 102.389 57.4893C102.287 57.4504 102.257 57.3483 102.208 57.2656C100.881 55.024 98.9239 53.5896 96.4495 52.8213C95.2245 52.442 93.9703 52.233 92.6964 52.1163C91.2909 51.985 89.8804 51.9752 88.4797 52.0628C87.0058 52.1552 85.5368 52.1989 84.0629 52.126C79.4167 51.8877 75.0242 50.7548 70.9783 48.411C68.5625 47.0107 66.4541 45.2456 64.7508 43.0283C63.2183 41.0347 62.1446 38.8174 61.6029 36.357C61.2173 34.6065 61.149 32.8365 61.3296 31.0569C61.5199 29.2286 61.9982 27.4732 62.6961 25.7762C63.1793 24.5946 63.56 23.3839 63.765 22.1245C63.926 21.1423 64.0041 20.1503 63.9553 19.1535C63.9211 18.4679 63.8626 17.7872 63.7357 17.1162C63.721 17.0627 63.7015 16.9946 63.7942 16.9265ZM68.8309 25.9999H68.8162L68.8358 26.0096C68.8699 26.1895 68.9773 26.3354 69.0749 26.4861C70.1291 28.1102 71.3639 29.5787 72.7792 30.9013C74.3605 32.3795 76.1174 33.6243 77.9671 34.7475C79.5582 35.7151 81.198 36.5952 82.8428 37.4802C84.8584 38.5645 86.8643 39.6537 88.8067 40.8742C92.2474 43.038 95.3368 45.6103 97.9527 48.7222C98.0357 48.8195 98.1235 48.9119 98.2211 49.0189C98.2163 48.9654 98.2211 48.9362 98.2065 48.907C98.1528 48.7903 98.0991 48.6688 98.0406 48.5521C97.0791 46.6995 95.8688 45.0268 94.4046 43.5388C93.0918 42.2065 91.6276 41.0638 90.0659 40.0379C88.4797 38.9924 86.8203 38.0783 85.1512 37.1885C83.3796 36.2403 81.5982 35.3067 79.8364 34.3439C77.8549 33.2596 75.9466 32.0634 74.1311 30.7262C72.2082 29.3112 70.4561 27.7309 68.8309 25.9999Z" fill="#469043"></path><path d="M19.7773 34.971C19.8212 35.0828 19.9091 35.0925 19.9823 35.1217C22.1638 36.0115 23.4035 37.6842 23.9159 39.9161C24.2673 41.4575 24.1648 42.9941 23.6621 44.4966C23.2473 45.7365 22.5201 46.7576 21.5196 47.5988C20.4703 48.4741 19.2648 49.0381 17.952 49.3834C16.8734 49.6702 15.7753 49.8307 14.6577 49.8842C14.0866 49.9134 13.5107 49.9182 12.9397 49.9182C8.83037 49.9231 4.721 49.9182 0.616516 49.9182C-0.0618707 49.9182 0.00157537 49.9717 0.00157537 49.325C0.00157537 40.4704 0.00157537 31.6159 0.00157537 22.7613C0.00157537 22.6786 0.00157537 22.596 0.00157537 22.5182C0.0113363 22.2021 0.0162171 22.1972 0.338329 22.1924C0.401775 22.1924 0.470102 22.1924 0.533548 22.1924C5.13096 22.1924 9.73325 22.1972 14.3307 22.1924C15.3312 22.1924 16.3268 22.2702 17.3029 22.4939C18.3473 22.7273 19.3429 23.0871 20.2165 23.7289C21.5294 24.6917 22.3591 25.9997 22.852 27.5265C23.2522 28.7616 23.3205 30.021 23.0521 31.2901C22.7544 32.7099 21.9735 33.7894 20.7095 34.509C20.4166 34.6744 20.0994 34.8105 19.7773 34.971ZM10.2359 37.7474C8.95726 37.7474 7.68345 37.7474 6.40477 37.7474C5.85327 37.7474 5.88744 37.7183 5.88744 38.2386C5.88744 40.3926 5.88744 42.5418 5.88744 44.6959C5.88744 44.7786 5.88744 44.8612 5.88744 44.939C5.8972 45.1579 5.9216 45.1773 6.16074 45.187C6.19491 45.187 6.22419 45.187 6.25835 45.187C8.77668 45.187 11.2999 45.187 13.8182 45.187C14.2965 45.187 14.765 45.1092 15.2238 44.9779C16.8392 44.5111 18.2107 43.0232 18.1618 41.1512C18.1277 39.9112 17.6104 39.002 16.5025 38.4185C15.6777 37.9857 14.7992 37.7523 13.867 37.7523C12.6615 37.7426 11.4512 37.7474 10.2359 37.7474ZM9.89431 33.0357C11.0071 33.0357 12.1198 33.0308 13.2326 33.0406C13.6425 33.0454 14.0525 33.0065 14.4527 32.9433C15.092 32.8461 15.6874 32.6273 16.2194 32.2528C16.7319 31.8882 17.0833 31.4116 17.2297 30.799C17.381 30.1523 17.3517 29.5007 17.1467 28.8686C16.9515 28.2705 16.5659 27.8134 15.9998 27.5314C15.7948 27.4293 15.5801 27.3466 15.3604 27.2834C14.6333 27.0743 13.8817 27.0111 13.1301 27.0111C10.8704 27.0062 8.61562 27.0062 6.35596 27.0062C6.25835 27.0062 6.16074 27.0062 6.06313 27.0111C5.9704 27.016 5.91184 27.0743 5.90696 27.1667C5.90208 27.2639 5.8972 27.3612 5.8972 27.4584C5.8972 29.17 5.8972 30.8816 5.8972 32.5932C5.8972 32.6759 5.8972 32.7585 5.90208 32.8363C5.91184 32.9871 5.95576 33.026 6.1217 33.0308C6.21931 33.0357 6.31692 33.0357 6.41453 33.0357C7.5712 33.0357 8.73275 33.0357 9.89431 33.0357Z" fill="#0196DA"></path><path d="M104.209 57.076C104.297 56.7551 104.355 56.5363 104.419 56.3223C104.746 55.2283 104.946 54.105 105.092 52.9721C105.283 51.4793 105.317 49.9817 105.243 48.484C105.18 47.1177 105.048 45.7562 104.814 44.4044C104.633 43.3784 104.453 42.3524 104.267 41.3265C103.97 39.6635 103.896 37.9908 104.004 36.3084C104.116 34.5725 104.521 32.8998 105.297 31.3243C106.234 29.4231 107.61 27.9012 109.333 26.6807C110.744 25.679 112.281 24.935 113.897 24.3321C115.663 23.6757 117.479 23.2137 119.329 22.8588C120.212 22.6886 121.095 22.5427 121.988 22.4211C122.037 22.5767 121.91 22.6302 121.842 22.6983C121.261 23.2769 120.734 23.8945 120.28 24.5801C119.558 25.6741 119.089 26.8654 118.943 28.1637C118.826 29.1897 118.899 30.2157 119.158 31.2222C119.275 31.6793 119.407 32.1315 119.582 32.574C120.061 33.7896 120.427 35.0393 120.636 36.3327C120.856 37.6747 120.895 39.0216 120.719 40.3734C120.402 42.8338 119.382 44.9879 117.889 46.9426C116.761 48.4159 115.434 49.6948 113.999 50.8666C112.081 52.4324 110.017 53.7793 107.889 55.0289C106.844 55.6416 105.785 56.2202 104.731 56.8134C104.594 56.8864 104.448 56.9544 104.209 57.076ZM108.894 50.074C109.075 50.0643 109.119 49.9039 109.197 49.792C110.295 48.2069 111.085 46.4904 111.564 44.6232C111.905 43.2958 112.076 41.9391 112.223 40.5776C112.349 39.3815 112.452 38.1804 112.618 36.9843C112.798 35.6763 113.047 34.3828 113.413 33.1137C113.887 31.4799 114.526 29.9142 115.322 28.4117C115.395 28.2707 115.512 28.1394 115.473 27.9595C115.488 27.9595 115.497 27.9595 115.512 27.9546C115.517 27.9498 115.522 27.9401 115.527 27.9303C115.512 27.9401 115.497 27.9546 115.478 27.9644C115.351 28.1151 115.219 28.2561 115.102 28.4117C113.911 29.9531 112.857 31.5772 112.091 33.3714C111.598 34.5336 111.256 35.7346 111.071 36.9794C110.919 38.0102 110.866 39.0508 110.871 40.0962C110.876 40.9764 110.876 41.8565 110.856 42.7366C110.841 43.5535 110.763 44.3606 110.632 45.1678C110.368 46.7384 109.846 48.2214 109.104 49.6316C109.031 49.7774 108.967 49.9233 108.899 50.074C108.865 50.1275 108.831 50.181 108.796 50.2296C108.767 50.2685 108.777 50.288 108.821 50.2783C108.835 50.2783 108.85 50.2588 108.855 50.2442C108.87 50.1956 108.879 50.1324 108.894 50.074Z" fill="#88C441"></path><path d="M102.101 33.2304C101.994 32.9873 101.915 32.8171 101.842 32.642C101.354 31.4459 100.788 30.2935 100.095 29.1994C99.4118 28.1199 98.6309 27.1183 97.6841 26.2479C96.708 25.3483 95.8246 24.3661 95.0974 23.2526C94.4142 22.2023 93.9066 21.0839 93.6528 19.8537C93.3746 18.5166 93.4576 17.1988 93.8383 15.8908C94.2385 14.5245 94.9169 13.3088 95.7514 12.1662C96.0784 11.7188 96.4103 11.2763 96.8105 10.8873C99.0701 8.69435 100.647 6.07348 101.623 3.09278C101.911 2.20781 102.155 1.31312 102.325 0.39897C102.35 0.257958 102.364 0.112083 102.457 0.000246464C102.56 -0.00461601 102.613 0.0634595 102.672 0.116947C104.663 2.04249 106.503 4.08959 107.977 6.44303C108.89 7.90177 109.622 9.44317 110.032 11.1256C110.251 12.03 110.378 12.949 110.359 13.8826C110.329 15.2003 110.056 16.4695 109.534 17.6802C108.987 18.9493 108.231 20.0871 107.328 21.1326C104.995 23.8264 103.424 26.8995 102.613 30.3615C102.433 31.125 102.286 31.8884 102.199 32.6664C102.184 32.8365 102.145 32.997 102.101 33.2304ZM100.564 25.8103C100.564 25.6984 100.564 25.5817 100.564 25.4699C100.554 24.653 100.564 23.841 100.622 23.0289C100.71 21.823 100.905 20.6366 101.198 19.4647C101.535 18.1324 102.037 16.8633 102.569 15.5991C102.989 14.6071 103.419 13.6249 103.746 12.5941C104.009 11.7674 104.2 10.9262 104.263 10.0607C104.346 8.9861 104.283 7.91149 104.078 6.84661C104.053 6.71533 104.024 6.5889 103.926 6.44789C103.785 7.88718 103.492 9.25354 103.062 10.5956C102.623 11.9619 102.052 13.2797 101.476 14.5925C101.052 15.565 100.632 16.5375 100.305 17.5441C99.9828 18.5409 99.7534 19.5571 99.6802 20.6026C99.5875 21.9641 99.7437 23.3061 100.1 24.619C100.212 25.0274 100.315 25.4359 100.564 25.8103Z" fill="#88C441"></path><path d="M41.5522 43.1161C41.5034 43.0772 41.4546 43.0383 41.4106 42.9897C40.6395 42.1679 39.8684 41.3462 39.0973 40.5244C39.0631 40.4904 39.0338 40.4515 38.9997 40.4126C38.9411 40.3396 38.9362 40.2618 38.9997 40.1938C39.0875 40.0965 39.1803 40.0041 39.273 39.9117C40.4394 38.7447 41.6107 37.5826 42.7772 36.4205C42.8699 36.3281 42.9626 36.2357 43.0456 36.1336C43.0749 36.0995 43.0846 36.0412 43.0407 36.0023C42.9529 35.9099 42.8601 35.8127 42.7674 35.7203C41.5863 34.5436 40.4053 33.3668 39.2291 32.1901C38.8435 31.806 38.8533 31.8741 39.2437 31.4851C39.9367 30.7897 40.6298 30.0993 41.3277 29.4136C41.4302 29.3115 41.518 29.1851 41.6791 29.1268C42.05 29.4331 42.377 29.7978 42.7235 30.1382C43.0846 30.4931 43.4409 30.8529 43.8021 31.2079C44.1486 31.5531 44.4951 31.8984 44.8416 32.2436C45.1881 32.584 45.5298 32.9341 45.8714 33.2647C46.0764 33.1675 46.1837 33.0167 46.3106 32.8903C48.5557 30.6536 50.8007 28.4168 53.0457 26.1801C53.1482 26.078 53.2604 25.9807 53.3581 25.8689C53.4752 25.7327 53.6167 25.6938 53.7924 25.6938C55.4615 25.6987 57.1307 25.6987 58.7998 25.6987C58.8437 25.6987 58.8925 25.7133 58.9364 25.7182C58.9853 25.8251 58.9023 25.8689 58.8486 25.9224C58.7461 26.0294 58.6436 26.1315 58.5362 26.2336C55.3883 29.3699 52.2404 32.5062 49.0925 35.6425C48.9656 35.7689 48.8436 35.8953 48.7314 36.012C48.7411 36.1287 48.7997 36.1871 48.8583 36.2454C48.9754 36.3621 49.0876 36.4788 49.2048 36.5907C55.7641 43.1258 62.3284 49.6659 68.8877 56.201C69.0146 56.3275 69.1367 56.4587 69.2587 56.59C69.2733 56.6095 69.2782 56.6532 69.2635 56.6775C69.2538 56.7019 69.2196 56.7213 69.1903 56.7213C69.0781 56.7262 68.961 56.731 68.8487 56.731C67.326 56.731 65.8033 56.7213 64.2855 56.7359C63.9829 56.7408 63.773 56.6484 63.5583 56.4344C60.8252 53.6968 58.0775 50.9641 55.3347 48.2314C52.3478 45.2556 49.3658 42.2846 46.379 39.3088C46.2277 39.1629 46.1057 38.9149 45.9056 38.9101C45.6762 38.9052 45.5542 39.1726 45.398 39.3282C44.2364 40.4758 43.0798 41.633 41.9231 42.7855C41.8157 42.907 41.723 43.048 41.5522 43.1161Z" fill="#0196DA"></path><path d="M38.3302 31.4068C34.9578 28.3094 30.4091 29.8313 28.8962 33.0114C28.945 33.1038 29.0377 33.06 29.1109 33.0697C29.1744 33.0794 29.2427 33.0697 29.3062 33.0697C31.6 33.0697 33.8889 33.0697 36.1828 33.0697C36.7977 33.0697 36.7391 32.9725 36.7391 33.6046C36.7391 34.7959 36.7391 35.9872 36.7391 37.1785C36.7391 37.2904 36.7391 37.4071 36.7342 37.5189C36.7294 37.6161 36.6757 37.6648 36.5781 37.6648C36.4463 37.6648 36.3145 37.6648 36.1876 37.6648C33.7669 37.6648 31.3413 37.6648 28.9206 37.6648C28.74 37.6648 28.5643 37.6648 28.3789 37.6648C28.5741 39.2013 29.965 41.0685 31.6634 41.8222C34.0646 42.8871 36.2511 42.4689 38.2326 40.8011C38.2765 40.8302 38.3204 40.8545 38.3546 40.8886C39.1794 41.7055 39.9993 42.5272 40.8192 43.3441C40.8436 43.3684 40.8631 43.3928 40.8875 43.4122C40.9559 43.4803 40.9607 43.5532 40.8973 43.6262C40.8534 43.6748 40.8046 43.7185 40.7558 43.7623C39.1745 45.2356 37.3101 46.1352 35.1579 46.3394C32.1856 46.6214 29.599 45.6976 27.4565 43.6262C25.7288 41.9583 24.7136 39.9112 24.4062 37.5335C24.0157 34.5479 24.7039 31.8298 26.578 29.452C28.1251 27.4876 30.1407 26.2477 32.62 25.8441C35.397 25.3919 37.9104 26.0823 40.1262 27.8037C40.4239 28.0322 40.6923 28.2996 40.9705 28.5525C41.0388 28.6157 41.0486 28.6886 40.9803 28.7664C40.9559 28.7907 40.9363 28.8151 40.9119 28.8345C40.0969 29.6611 39.2819 30.4829 38.4619 31.3046C38.4327 31.3387 38.3887 31.363 38.3302 31.4068Z" fill="black"></path><path d="M51.2229 54.8782C51.3205 54.9463 51.3742 54.9803 51.423 55.0241C51.7354 55.2818 51.8134 55.6222 51.7207 55.9966C51.6231 56.3758 51.3596 56.6092 50.9691 56.6725C50.8422 56.6919 50.7105 56.7065 50.5787 56.7065C50.2371 56.7114 49.8905 56.7114 49.5489 56.7065C49.2756 56.7016 49.2561 56.6919 49.2561 56.4439C49.2512 55.4325 49.2561 54.426 49.2561 53.4146C49.2561 53.366 49.261 53.3173 49.2658 53.2687C49.2756 53.1715 49.3342 53.1326 49.4269 53.1326C49.8661 53.1326 50.3103 53.1326 50.7495 53.1374C50.8325 53.1374 50.9106 53.1569 50.9886 53.1715C51.4181 53.2736 51.6329 53.5118 51.6914 53.9397C51.7305 54.2315 51.6719 54.4892 51.4474 54.6934C51.384 54.7421 51.3205 54.7907 51.2229 54.8782ZM49.7685 55.6367C49.7685 55.7972 49.7636 55.9577 49.7734 56.123C49.7734 56.157 49.8271 56.2251 49.8564 56.2251C50.1785 56.23 50.5055 56.2786 50.8227 56.1911C51.1155 56.1084 51.2522 55.909 51.2327 55.6173C51.2083 55.3255 51.0423 55.1505 50.7397 55.1116C50.5933 55.0921 50.4469 55.1019 50.3005 55.1019C49.6953 55.1019 49.7588 55.0144 49.7685 55.6367ZM50.2712 54.6448C50.2712 54.6399 50.2712 54.6399 50.2712 54.6351C50.4176 54.6351 50.564 54.6399 50.7105 54.6351C50.7593 54.6351 50.8032 54.6156 50.852 54.6059C50.9691 54.5767 51.0619 54.5184 51.1155 54.4114C51.3059 54.0564 51.1058 53.6723 50.7056 53.6188C50.6275 53.6091 50.5445 53.6091 50.4616 53.6091C49.6123 53.6285 49.7734 53.4584 49.7588 54.319C49.7539 54.6399 49.7636 54.6399 50.0809 54.6448C50.1443 54.6448 50.2078 54.6448 50.2712 54.6448Z" fill="black"></path><path d="M8.42188 54.917C8.42188 54.3821 8.42188 53.8423 8.42188 53.3075C8.42188 53.1908 8.48044 53.1276 8.60245 53.1276C9.0417 53.1276 9.48582 53.113 9.92506 53.1324C10.3838 53.1519 10.7157 53.4145 10.8426 53.818C10.9744 54.2411 10.8524 54.6981 10.5254 54.9753C10.501 54.9948 10.4717 55.0142 10.4473 55.0337C10.2521 55.1844 10.2472 55.1844 10.3692 55.4129C10.5351 55.729 10.7059 56.0451 10.8719 56.3611C10.9109 56.434 10.95 56.507 10.9744 56.5799C10.989 56.6286 10.9695 56.6918 10.9158 56.6918C10.784 56.7015 10.6571 56.6966 10.5254 56.6918C10.4326 56.6869 10.3936 56.6091 10.3545 56.5362C10.2081 56.2444 10.0568 55.9575 9.91042 55.6658C9.85674 55.5637 9.80793 55.4616 9.75913 55.3594C9.70544 55.2525 9.62247 55.1893 9.4907 55.1893C8.90992 55.199 8.93433 55.1309 8.93921 55.6901C8.93921 55.9527 8.94409 56.2104 8.93921 56.473C8.93433 56.6723 8.90504 56.7015 8.7147 56.7015C8.68054 56.7015 8.65126 56.7015 8.61709 56.7015C8.50484 56.6966 8.43164 56.648 8.43164 56.5264C8.43164 56.4292 8.43164 56.3319 8.43164 56.2347C8.42188 55.7922 8.42188 55.3546 8.42188 54.917ZM9.46142 54.6933C9.60783 54.6933 9.75425 54.703 9.90066 54.6933C10.1788 54.669 10.3545 54.455 10.3497 54.1536C10.3448 53.8569 10.1691 53.643 9.8909 53.6138C9.76401 53.5992 9.63223 53.609 9.50046 53.609C8.84648 53.6138 8.93433 53.536 8.93433 54.1827C8.93433 54.7468 8.86112 54.6981 9.46142 54.6933Z" fill="black"></path><path d="M17.0069 55.1701C17.251 55.7001 17.5438 56.1475 17.7488 56.6289C17.6316 56.7456 17.5145 56.6921 17.4071 56.7067C17.2558 56.7261 17.1631 56.6532 17.0997 56.5219C16.9337 56.1864 16.7483 55.8606 16.597 55.5154C16.4896 55.2722 16.353 55.1458 16.0748 55.1944C15.9625 55.2139 15.8503 55.209 15.7478 55.2139C15.6795 55.316 15.699 55.4181 15.699 55.5105C15.699 55.8022 15.6941 56.0989 15.699 56.3906C15.7039 56.6969 15.6648 56.7115 15.3573 56.7067C15.2646 56.7018 15.206 56.658 15.1963 56.5657C15.1914 56.5024 15.1914 56.4344 15.1914 56.3712C15.1914 55.4084 15.1914 54.4505 15.1914 53.4877C15.1914 53.4391 15.1914 53.3905 15.1914 53.3418C15.2012 53.1668 15.2256 53.1327 15.3866 53.1327C15.8112 53.1279 16.2358 53.1182 16.6604 53.1376C17.129 53.1571 17.4462 53.3953 17.5877 53.8038C17.739 54.2511 17.6219 54.7033 17.2656 54.9951C17.1875 55.0437 17.1094 55.0972 17.0069 55.1701ZM16.2651 53.6141V53.619C16.1187 53.619 15.9723 53.6141 15.8259 53.619C15.7527 53.619 15.7039 53.6676 15.7039 53.7406C15.699 54.0177 15.699 54.29 15.699 54.5672C15.699 54.6401 15.7429 54.6887 15.8161 54.6887C16.1089 54.6936 16.4018 54.6985 16.6946 54.6839C16.8947 54.6742 17.0167 54.5429 17.0655 54.3532C17.085 54.2754 17.0899 54.1928 17.0899 54.115C17.0753 53.8038 16.9142 53.6384 16.6067 53.6141C16.4945 53.6093 16.3774 53.6141 16.2651 53.6141Z" fill="black"></path><path d="M24.0818 54.81C24.2233 54.776 24.2672 54.6641 24.3307 54.5766C24.6479 54.1828 24.9749 53.7938 25.2677 53.3853C25.4239 53.1714 25.5947 53.0838 25.8485 53.1227C25.8973 53.1276 25.9412 53.1373 25.9851 53.1422C26.0193 53.2394 25.9656 53.2978 25.9119 53.361C25.6435 53.6868 25.38 54.0223 25.1018 54.3432C24.9846 54.4794 24.9944 54.5864 25.0823 54.7322C25.4044 55.2622 25.7167 55.7922 26.034 56.3271C26.0925 56.4244 26.1462 56.5216 26.2048 56.6189C25.9754 56.6918 25.8192 56.7112 25.7265 56.6967C25.6142 56.6772 25.5654 56.5897 25.5166 56.507C25.297 56.1423 25.0823 55.7777 24.8626 55.4178C24.7797 55.2817 24.726 55.1212 24.5844 55.0337C24.5649 55.0434 24.5503 55.0483 24.5405 55.0629C24.0378 55.5832 24.0378 55.5832 24.033 56.2979C24.033 56.332 24.033 56.3612 24.033 56.3952C24.0427 56.6821 23.9988 56.7161 23.6816 56.7015C23.5888 56.6967 23.5303 56.6529 23.5205 56.5557C23.5156 56.473 23.5156 56.3952 23.5156 56.3125C23.5156 55.3838 23.5156 54.4551 23.5156 53.5263C23.5156 53.4631 23.5156 53.395 23.5156 53.3318C23.5254 53.1616 23.5547 53.1325 23.7157 53.1276C23.7499 53.1276 23.7792 53.1276 23.8133 53.1276C23.9842 53.1325 24.0232 53.1665 24.0232 53.3221C24.0281 53.7306 24.0232 54.1341 24.0281 54.5426C24.0281 54.635 24.0086 54.7322 24.0818 54.81Z" fill="black"></path><path d="M41.3418 53.1618C41.4833 53.1035 41.6249 53.1132 41.7664 53.1472C41.8542 53.2688 41.8201 53.4001 41.8201 53.5314C41.825 54.1197 41.8201 54.7032 41.8249 55.2916C41.8249 55.4229 41.825 55.5542 41.8542 55.6806C41.9372 56.0453 42.2251 56.2495 42.6107 56.2349C42.9963 56.2155 43.2549 55.9869 43.2989 55.6077C43.3184 55.4618 43.3135 55.3159 43.3135 55.17C43.3135 54.5817 43.3135 53.9982 43.3135 53.4098C43.3135 53.1521 43.3379 53.1327 43.5917 53.1327C43.6551 53.1327 43.7186 53.1473 43.7771 53.1521C43.8308 53.4973 43.8406 55.4423 43.7967 55.7438C43.7186 56.2592 43.4013 56.5996 42.8889 56.7066C42.679 56.7503 42.4643 56.7503 42.2544 56.7066C41.7517 56.6045 41.4589 56.2884 41.3418 55.7973C41.3223 55.7049 41.3125 55.6028 41.3125 55.5055C41.3125 54.7567 41.3125 54.0079 41.3125 53.2591C41.3174 53.2299 41.3369 53.1959 41.3418 53.1618Z" fill="black"></path><path d="M4.08984 53.1813C4.24602 53.0986 4.39243 53.1278 4.53397 53.1473C4.61694 53.2494 4.59253 53.3661 4.59253 53.4779C4.59253 54.0663 4.59253 54.6498 4.59253 55.2381C4.59253 55.35 4.58765 55.4667 4.60229 55.5785C4.65598 56.0015 4.94881 56.2495 5.36853 56.2349C5.77361 56.2204 6.03716 55.9772 6.06644 55.5639C6.09084 55.2576 6.0762 54.9464 6.08108 54.6352C6.08108 54.2122 6.08108 53.7891 6.08108 53.3661C6.08108 53.1667 6.12012 53.1327 6.3007 53.1278C6.55449 53.1181 6.58865 53.1424 6.58865 53.3904C6.59353 54.0566 6.58865 54.7276 6.58865 55.3937C6.58865 55.4424 6.58377 55.491 6.58377 55.5396C6.51544 56.5267 5.60279 57.0421 4.70479 56.6045C4.40708 56.4586 4.23138 56.2155 4.14353 55.8994C4.11913 55.807 4.08984 55.7098 4.08984 55.6125C4.08984 54.8005 4.08984 53.9885 4.08984 53.1813Z" fill="black"></path><path d="M35.72 53.4632C35.6858 53.5265 35.6663 53.5848 35.6273 53.6383C35.4808 53.8474 35.4662 53.8668 35.2417 53.7355C34.9733 53.5848 34.6853 53.5556 34.3876 53.5994C34.2705 53.6188 34.168 53.6577 34.0753 53.7307C33.7776 53.9689 33.8166 54.3725 34.1631 54.5281C34.3242 54.6011 34.5047 54.6302 34.6804 54.674C34.8561 54.7178 35.0318 54.7469 35.2027 54.8053C35.5785 54.9317 35.7932 55.1991 35.8225 55.5979C35.8469 56.0015 35.7151 56.337 35.3442 56.546C35.2466 56.5995 35.1343 56.6384 35.027 56.6676C34.4267 56.8183 33.8605 56.7357 33.3432 56.3905C33.2651 56.337 33.2407 56.2689 33.2944 56.1862C33.3188 56.1473 33.353 56.1084 33.3822 56.0695C33.4262 56.0209 33.475 55.982 33.5335 55.9285C33.8703 56.1619 34.2363 56.2835 34.6414 56.2494C34.7732 56.2397 34.9001 56.2154 35.0172 56.157C35.2124 56.0598 35.3149 55.9042 35.31 55.6903C35.3051 55.4909 35.1929 55.3547 35.0074 55.2867C34.8708 55.238 34.7244 55.2089 34.5828 55.17C34.3632 55.1116 34.1338 55.0727 33.9191 54.9998C33.5921 54.8928 33.4213 54.6448 33.3822 54.3093C33.3041 53.6869 33.6507 53.2201 34.2754 53.1277C34.7927 53.0499 35.2807 53.1229 35.72 53.4632Z" fill="black"></path><path d="M19.2109 56.3028C19.25 56.2347 19.2793 56.1764 19.3183 56.1278C19.455 55.9576 19.4842 55.8992 19.7136 56.0499C19.9967 56.2396 20.3188 56.2736 20.6556 56.2493C20.7873 56.2396 20.9142 56.2055 21.0314 56.1423C21.2071 56.05 21.2949 55.9041 21.2949 55.7096C21.2949 55.5054 21.1924 55.3643 21.0118 55.2914C20.8752 55.2379 20.7288 55.2087 20.5872 55.1747C20.3676 55.1212 20.1382 55.0775 19.9235 55.0094C19.616 54.9121 19.4452 54.6933 19.3818 54.3773C19.2646 53.7646 19.5819 53.2638 20.1968 53.1422C20.5872 53.0644 20.9777 53.0741 21.3486 53.254C21.7 53.4242 21.8415 53.4437 21.4657 53.8132C21.3339 53.857 21.2559 53.75 21.1582 53.7062C20.9093 53.5895 20.6556 53.5749 20.392 53.6041C20.2749 53.6187 20.1724 53.6576 20.0748 53.7257C19.7722 53.9445 19.8015 54.3724 20.1333 54.5231C20.2944 54.5961 20.475 54.6301 20.6458 54.6739C20.8215 54.7176 20.9972 54.7468 21.168 54.8003C21.5438 54.9267 21.7683 55.1747 21.7927 55.5832C21.822 56.0694 21.6512 56.3952 21.251 56.58C21.1485 56.6286 21.0362 56.6675 20.9289 56.6869C20.3042 56.8036 19.7283 56.7161 19.2109 56.3028Z" fill="black"></path><path d="M30.1714 56.7017C30.0055 56.726 29.9225 56.6287 29.8689 56.4682C29.8152 56.2981 29.7859 56.0938 29.6688 55.9869C29.5077 55.841 29.2637 55.9334 29.0538 55.9237C28.844 55.9139 28.6292 55.9237 28.4194 55.9237C28.3071 55.9237 28.2339 55.9723 28.1948 56.0744C28.1558 56.1814 28.1216 56.2883 28.0826 56.3953C27.9703 56.7065 27.9508 56.7211 27.6287 56.7017C27.4969 56.6919 27.453 56.6336 27.4969 56.512C27.8337 55.5979 28.1753 54.6837 28.5121 53.7696C28.5755 53.6043 28.6341 53.4341 28.6975 53.2687C28.7463 53.1375 28.8537 53.1229 28.9757 53.1277C29.0977 53.1277 29.1953 53.152 29.2442 53.2882C29.4687 53.896 29.698 54.5038 29.9225 55.1165C30.0934 55.5736 30.2593 56.0306 30.4252 56.4877C30.4838 56.6433 30.4399 56.7017 30.2886 56.7065C30.2544 56.7017 30.2203 56.7017 30.1714 56.7017ZM29.0099 53.9641C28.9318 53.9933 28.8879 54.0419 28.8732 54.11C28.7512 54.5427 28.5462 54.9512 28.4584 55.4374C28.761 55.4374 29.0343 55.4423 29.3076 55.4374C29.4443 55.4374 29.4882 55.3791 29.4443 55.2526C29.3076 54.8199 29.1563 54.392 29.0099 53.9641Z" fill="black"></path><path d="M56.1177 56.6724C56.0689 56.6821 56.0055 56.7016 55.942 56.7016C55.6541 56.7064 55.6492 56.7016 55.5516 56.439C55.3271 55.8506 55.4784 55.9284 54.8049 55.9187C54.7219 55.9187 54.6438 55.9138 54.5608 55.9187C54.3656 55.9284 54.1509 55.8604 53.9849 55.9576C53.8092 56.0597 53.8092 56.2931 53.7507 56.473C53.6921 56.6384 53.6043 56.7064 53.4335 56.7016C53.1748 56.7016 53.1309 56.6627 53.2138 56.4293C53.5896 55.4081 53.9654 54.387 54.3461 53.3659C54.4339 53.1228 54.4974 53.0936 54.7463 53.1228C54.8195 53.1325 54.8683 53.1568 54.8976 53.2249C54.922 53.2832 54.9513 53.3416 54.9757 53.4048C55.3515 54.4259 55.7322 55.447 56.108 56.4682C56.1324 56.5314 56.1568 56.5897 56.1177 56.6724ZM55.1904 55.4179C55.0928 55.1213 55.0196 54.8733 54.9269 54.6399C54.839 54.4162 54.8244 54.1536 54.6145 53.9397C54.4632 54.4502 54.2534 54.9024 54.1314 55.4422C54.4925 55.4325 54.8097 55.4519 55.1904 55.4179Z" fill="black"></path><path d="M46.4154 56.7016C46.1031 56.7016 45.7956 56.7016 45.4833 56.7016C45.3808 56.7016 45.332 56.6481 45.3222 56.5557C45.2978 56.3564 45.3515 56.1764 45.4589 56.0014C45.8396 55.3741 46.2105 54.742 46.5814 54.1099C46.6497 53.9981 46.718 53.8862 46.7717 53.7695C46.801 53.7063 46.7571 53.6334 46.6839 53.6285C46.391 53.6188 46.0933 53.6236 45.8005 53.6188C45.6883 53.6188 45.5711 53.6139 45.4589 53.6091C45.4052 53.6042 45.371 53.5604 45.3661 53.5118C45.3564 53.4291 45.3564 53.3513 45.3613 53.2687C45.3661 53.1957 45.4101 53.152 45.4784 53.1374C45.5126 53.1325 45.5418 53.1325 45.576 53.1325C46.147 53.1325 46.7229 53.1277 47.2939 53.1325C47.4648 53.1325 47.4892 53.1763 47.4989 53.3368C47.5136 53.5313 47.4306 53.682 47.3379 53.8376C46.9572 54.4843 46.5765 55.131 46.2007 55.7777C46.1421 55.875 46.0836 55.9722 46.0396 56.0792C46.0104 56.1473 46.0494 56.2153 46.1275 56.2153C46.4057 56.2251 46.6839 56.2202 46.9621 56.2251C47.1085 56.2251 47.2549 56.2299 47.4062 56.2251C47.4599 56.2251 47.5087 56.2494 47.5233 56.2931C47.5575 56.405 47.5575 56.5217 47.5184 56.6287C47.494 56.6967 47.4257 56.7065 47.3574 56.7065C47.0402 56.7016 46.7278 56.7016 46.4154 56.7016Z" fill="black"></path><path d="M37.5196 54.8685C37.5196 54.3628 37.5196 53.8619 37.5196 53.3562C37.5196 53.2784 37.5147 53.1812 37.6026 53.1472C37.7294 53.1034 37.8612 53.1034 37.9832 53.1618C38.0125 53.1763 38.032 53.2444 38.0369 53.2882C38.0467 53.4195 38.0418 53.5459 38.0418 53.6772C38.0418 54.4406 38.0418 55.204 38.0467 55.9674C38.0467 56.1911 38.0711 56.2105 38.3053 56.2154C38.7446 56.2202 39.1838 56.2154 39.6279 56.2202C39.706 56.2202 39.8036 56.2202 39.8232 56.3175C39.8476 56.4293 39.8622 56.546 39.7939 56.6481C39.7744 56.6822 39.706 56.6968 39.6621 56.6968C39.0081 56.7016 38.359 56.7016 37.705 56.6968C37.5635 56.6968 37.5196 56.6384 37.5196 56.4731C37.5196 55.9382 37.5196 55.4034 37.5196 54.8685Z" fill="black"></path><path d="M13.2558 54.8978C13.2558 55.4181 13.2558 55.9384 13.2558 56.4635C13.2558 56.6775 13.2168 56.7067 12.9923 56.7018C12.7922 56.6969 12.7483 56.6678 12.7483 56.4879C12.7434 55.4473 12.7483 54.4018 12.7483 53.3613C12.7483 53.2835 12.7385 53.1765 12.8264 53.1473C12.9484 53.1084 13.085 53.0987 13.207 53.1571C13.2314 53.1668 13.2461 53.2105 13.251 53.2349C13.2607 53.3321 13.2607 53.4294 13.2607 53.5266C13.2558 53.9885 13.2558 54.4407 13.2558 54.8978Z" fill="black"></path><path d="M45.9367 52.0334C45.9855 52.0432 46.0196 52.0432 46.044 52.0578C46.0977 52.0918 46.1514 52.1356 46.2051 52.1696C46.4394 52.3349 46.4394 52.3349 46.659 52.1793C46.7127 52.1404 46.7615 52.1015 46.8152 52.0626C46.9128 52.0043 47.1373 52.1404 47.147 52.2571C47.147 52.2717 47.1421 52.2912 47.1373 52.3009C47.1226 52.3301 47.108 52.3592 47.0787 52.3787C46.8688 52.5246 46.6931 52.7288 46.4442 52.826C46.1953 52.7336 46.0196 52.5343 45.8098 52.3835C45.7024 52.3057 45.7073 52.2474 45.8049 52.1453C45.8439 52.1064 45.8976 52.0675 45.9367 52.0334Z" fill="black"></path><path d="M68.8324 26.005L68.8125 25.9951L68.8274 26.0001L68.8324 26.005Z" fill="white"></path><path d="M108.896 50.074C108.881 50.1323 108.871 50.1955 108.857 50.2539C108.852 50.2685 108.837 50.2831 108.822 50.2879C108.778 50.2976 108.769 50.2782 108.798 50.2393C108.832 50.1858 108.866 50.1372 108.9 50.0837C108.9 50.0788 108.896 50.074 108.896 50.074Z" fill="white"></path><path d="M115.474 27.964C115.488 27.9543 115.503 27.9398 115.522 27.9302C115.517 27.9398 115.512 27.9495 115.508 27.9543C115.498 27.9592 115.483 27.9592 115.469 27.9592L115.474 27.964Z" fill="white"></path></svg>