<svg width="0" height="0" class="hidden">
  <symbol id="rocket" xmlns="http://www.w3.org/2000/svg" viewBox="0 0 24 24">
    <path fill="var(--secondary)" d="M23.948.042c-.413-.028-.817-.042-1.214-.042-8.6 0-13.497 6.557-15.278 11.833l4.727 4.727c5.428-1.944 11.817-6.66 11.817-15.168 0-.44-.017-.89-.052-1.35zm-11.277 14.178l-2.883-2.883c1.221-2.859 4.691-8.945 12.199-9.32-.251 5.775-4.041 9.932-9.316 12.203zm5.471 1.538c-.547.373-1.09.71-1.628 1.011-.187.891-.662 1.842-1.351 2.652-.002-.576-.162-1.156-.443-1.738-.495.225-.966.418-1.414.588.66 1.709-.012 2.971-.915 4.154 1.296-.098 2.656-.732 3.728-1.805 1.155-1.155 1.967-2.823 2.023-4.862zm-11.82-6.469c-.579-.28-1.158-.438-1.732-.441.803-.681 1.744-1.153 2.626-1.345.314-.552.667-1.097 1.039-1.633-2.039.055-3.708.867-4.864 2.023-1.071 1.071-1.706 2.433-1.804 3.728 1.184-.904 2.446-1.576 4.155-.914.173-.471.366-.944.58-1.418zm7.738.663c-.391-.391-.391-1.023 0-1.414s1.023-.391 1.414 0c.391.392.391 1.024 0 1.415s-1.024.39-1.414-.001zm4.949-4.951c-.78-.78-2.047-.78-2.828 0-.781.781-.781 2.049 0 2.829.781.781 2.048.781 2.829 0 .78-.78.78-2.047-.001-2.829zm-1.908 1.911c-.273-.273-.273-.718 0-.99.271-.273.717-.273.99 0 .272.272.271.717 0 .99-.274.272-.718.272-.99 0zm-15.132 12.666l-.906-.906 5.208-5.188.906.906-5.208 5.188zm4.979 1.857l-.906-.906 3.636-3.664.906.906-3.636 3.664zm-6.042 2.565l-.906-.906 6.448-6.438.906.906-6.448 6.438z"></path>
  </symbol>

  <symbol xmlns="http://www.w3.org/2000/svg" viewBox="0 0 24 24" id="present">
    <path fill="var(--secondary)" d="M11 24h-9v-12h9v12zm0-18h-11v4h11v-4zm2 18h9v-12h-9v12zm0-18v4h11v-4h-11zm4.369-6c-2.947 0-4.671 3.477-5.369 5h5.345c3.493 0 3.53-5 .024-5zm-.796 3.621h-2.043c.739-1.121 1.439-1.966 2.342-1.966 1.172 0 1.228 1.966-.299 1.966zm-9.918 1.379h5.345c-.698-1.523-2.422-5-5.369-5-3.506 0-3.469 5 .024 5zm.473-3.345c.903 0 1.603.845 2.342 1.966h-2.043c-1.527 0-1.471-1.966-.299-1.966z"></path>
  </symbol>
  <symbol fill="var(--secondary)" xmlns="http://www.w3.org/2000/svg" fill-rule="evenodd" clip-rule="evenodd" viewBox="0 0 24 24" id="price-tag">
    <path d="M2 9.453v-9.453h9.352l10.648 10.625-3.794 3.794 1.849 4.733-12.34 4.848-5.715-14.547zm1.761 1.748l4.519 11.503 10.48-4.118-1.326-3.395-4.809 4.809-8.864-8.799zm-.761-10.201v8.036l9.622 9.552 7.963-7.962-9.647-9.626h-7.938zm12.25 8.293c-.415-.415-.865-.617-1.378-.617-.578 0-1.227.241-2.171.803-.682.411-1.118.585-1.456.585-.361 0-1.083-.409-.961-1.219.052-.345.25-.696.572-1.019.652-.652 1.544-.848 2.276-.107l.744-.744c-.476-.475-1.096-.792-1.761-.792-.566 0-1.125.228-1.663.677l-.626-.626-.698.699.653.652c-.569.826-.842 2.021.076 2.937 1.011 1.011 2.188.541 3.413-.232.6-.379 1.083-.563 1.475-.563.589.001 1.18.498 1.078 1.258-.052.386-.26.764-.621 1.122-.451.451-.904.679-1.347.679-.418 0-.747-.192-1.049-.462l-.739.739c.463.458 1.082.753 1.735.753.544 0 1.087-.201 1.612-.597l.54.538.697-.697-.52-.521c.743-.896 1.157-2.209.119-3.247zm-9.25-7.292c1.104 0 2 .896 2 2s-.896 2-2 2-2-.896-2-2 .896-2 2-2zm0 1c.552 0 1 .448 1 1s-.448 1-1 1-1-.448-1-1 .448-1 1-1z"></path>
  </symbol>
</svg>
