<svg width="0" height="0" class="hidden">
  <symbol id="rocket" xmlns="http://www.w3.org/2000/svg" viewBox="0 0 24 24">
    <path fill="var(--secondary)" d="M23.948.042c-.413-.028-.817-.042-1.214-.042-8.6 0-13.497 6.557-15.278 11.833l4.727 4.727c5.428-1.944 11.817-6.66 11.817-15.168 0-.44-.017-.89-.052-1.35zm-11.277 14.178l-2.883-2.883c1.221-2.859 4.691-8.945 12.199-9.32-.251 5.775-4.041 9.932-9.316 12.203zm5.471 1.538c-.547.373-1.09.71-1.628 1.011-.187.891-.662 1.842-1.351 2.652-.002-.576-.162-1.156-.443-1.738-.495.225-.966.418-1.414.588.66 1.709-.012 2.971-.915 4.154 1.296-.098 2.656-.732 3.728-1.805 1.155-1.155 1.967-2.823 2.023-4.862zm-11.82-6.469c-.579-.28-1.158-.438-1.732-.441.803-.681 1.744-1.153 2.626-1.345.314-.552.667-1.097 1.039-1.633-2.039.055-3.708.867-4.864 2.023-1.071 1.071-1.706 2.433-1.804 3.728 1.184-.904 2.446-1.576 4.155-.914.173-.471.366-.944.58-1.418zm7.738.663c-.391-.391-.391-1.023 0-1.414s1.023-.391 1.414 0c.391.392.391 1.024 0 1.415s-1.024.39-1.414-.001zm4.949-4.951c-.78-.78-2.047-.78-2.828 0-.781.781-.781 2.049 0 2.829.781.781 2.048.781 2.829 0 .78-.78.78-2.047-.001-2.829zm-1.908 1.911c-.273-.273-.273-.718 0-.99.271-.273.717-.273.99 0 .272.272.271.717 0 .99-.274.272-.718.272-.99 0zm-15.132 12.666l-.906-.906 5.208-5.188.906.906-5.208 5.188zm4.979 1.857l-.906-.906 3.636-3.664.906.906-3.636 3.664zm-6.042 2.565l-.906-.906 6.448-6.438.906.906-6.448 6.438z"></path>
  </symbol>

  <symbol xmlns="http://www.w3.org/2000/svg" viewBox="0 0 24 24" id="present">
    <path fill="var(--secondary)" d="M11 24h-9v-12h9v12zm0-18h-11v4h11v-4zm2 18h9v-12h-9v12zm0-18v4h11v-4h-11zm4.369-6c-2.947 0-4.671 3.477-5.369 5h5.345c3.493 0 3.53-5 .024-5zm-.796 3.621h-2.043c.739-1.121 1.439-1.966 2.342-1.966 1.172 0 1.228 1.966-.299 1.966zm-9.918 1.379h5.345c-.698-1.523-2.422-5-5.369-5-3.506 0-3.469 5 .024 5zm.473-3.345c.903 0 1.603.845 2.342 1.966h-2.043c-1.527 0-1.471-1.966-.299-1.966z"></path>
  </symbol>
  <symbol fill="var(--secondary)" xmlns="http://www.w3.org/2000/svg" fill-rule="evenodd" clip-rule="evenodd" viewBox="0 0 24 24" id="price-tag">
    <path d="M2 9.453v-9.453h9.352l10.648 10.625-3.794 3.794 1.849 4.733-12.34 4.848-5.715-14.547zm1.761 1.748l4.519 11.503 10.48-4.118-1.326-3.395-4.809 4.809-8.864-8.799zm-.761-10.201v8.036l9.622 9.552 7.963-7.962-9.647-9.626h-7.938zm12.25 8.293c-.415-.415-.865-.617-1.378-.617-.578 0-1.227.241-2.171.803-.682.411-1.118.585-1.456.585-.361 0-1.083-.409-.961-1.219.052-.345.25-.696.572-1.019.652-.652 1.544-.848 2.276-.107l.744-.744c-.476-.475-1.096-.792-1.761-.792-.566 0-1.125.228-1.663.677l-.626-.626-.698.699.653.652c-.569.826-.842 2.021.076 2.937 1.011 1.011 2.188.541 3.413-.232.6-.379 1.083-.563 1.475-.563.589.001 1.18.498 1.078 1.258-.052.386-.26.764-.621 1.122-.451.451-.904.679-1.347.679-.418 0-.747-.192-1.049-.462l-.739.739c.463.458 1.082.753 1.735.753.544 0 1.087-.201 1.612-.597l.54.538.697-.697-.52-.521c.743-.896 1.157-2.209.119-3.247zm-9.25-7.292c1.104 0 2 .896 2 2s-.896 2-2 2-2-.896-2-2 .896-2 2-2zm0 1c.552 0 1 .448 1 1s-.448 1-1 1-1-.448-1-1 .448-1 1-1z"></path>
  </symbol>
  <symbol fill="var(--secondary)" xmlns="http://www.w3.org/2000/svg" viewBox="0 0 24 24" id="shopping-bag">
    <path d="M2 22v-13h3v1.5c0 .276.224.5.5.5s.5-.224.5-.5v-1.5h6v1.5c0 .276.224.5.5.5s.5-.224.5-.5v-1.5h3v3h2v-5h-5v-3c0-2.209-1.791-4-4-4s-4 1.791-4 4v3h-5v17h16.69l-1.999-2h-12.691zm4-18c0-1.654 1.346-3 3-3s3 1.346 3 3v3h-6v-3zm13.899 15.899c.168.145.072.381-.132.618-.156.183-.305.283-.434.283l-.156-.06c-.157-.136-.089-.383.123-.625.144-.166.302-.276.44-.276l.159.06zm-1.421-5.899h-4.478v4.48l5.518 5.52 4.482-4.48-5.522-5.52zm-.447 3.364c.21-.245.479-.379.745-.379.188 0 .374.067.538.208.403.346.376.835.033 1.234-.234.272-.502.39-.752.39-.198 0-.385-.074-.534-.202-.354-.307-.407-.813-.03-1.251zm-2.031-.614c-.413 0-.75-.335-.75-.75s.338-.75.75-.75.75.335.75.75-.337.75-.75.75zm1.25 2.866l3.417-1.262.295.252-3.42 1.259-.292-.249zm2.944 1.225c-.233.272-.5.39-.75.39-.197 0-.384-.074-.533-.202-.353-.302-.405-.809-.032-1.25.21-.245.479-.379.745-.379.188 0 .374.066.539.208.402.345.377.834.031 1.233zm-1.864-2.516c-.158-.136-.09-.383.119-.627.144-.166.304-.275.442-.275l.157.059c.168.145.075.384-.128.621-.156.182-.307.283-.436.283l-.154-.061z"></path>
  </symbol>

  <symbol fill="var(--secondary)" xmlns="http://www.w3.org/2000/svg" viewBox="0 0 24 24" id="rocket2">
    <path d="M19.957 4.035c-.345-.024-.682-.035-1.012-.035-7.167 0-11.248 5.464-12.732 9.861l3.939 3.938c4.524-1.619 9.848-5.549 9.848-12.639 0-.367-.014-.741-.043-1.125zm-9.398 11.815l-2.402-2.402c1.018-2.383 3.91-7.455 10.166-7.767-.21 4.812-3.368 8.276-7.764 10.169zm4.559 1.282c-.456.311-.908.592-1.356.842-.156.742-.552 1.535-1.126 2.21-.001-.48-.135-.964-.369-1.449-.413.187-.805.348-1.179.49.551 1.424-.01 2.476-.763 3.462 1.08-.081 2.214-.61 3.106-1.504.965-.962 1.64-2.352 1.687-4.051zm-9.849-5.392c-.482-.232-.965-.364-1.443-.367.669-.567 1.453-.961 2.188-1.121.262-.461.556-.915.865-1.361-1.699.046-3.09.723-4.054 1.686-.893.893-1.421 2.027-1.503 3.106.986-.753 2.039-1.313 3.463-.762.145-.391.305-.785.484-1.181zm6.448.553c-.326-.325-.326-.853 0-1.178.325-.326.853-.326 1.178 0 .326.326.326.854 0 1.179-.326.325-.853.325-1.178-.001zm4.124-4.125c-.65-.65-1.706-.65-2.356 0-.651.651-.651 1.707 0 2.357.65.651 1.706.651 2.357 0 .65-.65.65-1.706-.001-2.357zm-1.591 1.592c-.228-.228-.228-.598 0-.825.227-.228.598-.228.826 0 .227.227.226.597 0 .825-.228.227-.598.227-.826 0zm-12.609 10.555l-.755-.755 4.341-4.323.755.755-4.341 4.323zm4.148 1.547l-.755-.755 3.03-3.054.756.755-3.031 3.054zm-5.034 2.138l-.755-.755 5.373-5.364.756.755-5.374 5.364zm21.083-14.291c-.188.618-.673 1.102-1.291 1.291.618.188 1.103.672 1.291 1.291.189-.619.673-1.103 1.291-1.291-.618-.188-1.102-.672-1.291-1.291zm-14.655-6.504c-.247.81-.881 1.443-1.69 1.69.81.247 1.443.881 1.69 1.69.248-.809.881-1.443 1.69-1.69-.81-.247-1.442-.88-1.69-1.69zm-1.827-3.205c-.199.649-.706 1.157-1.356 1.355.65.199 1.157.707 1.356 1.355.198-.649.706-1.157 1.354-1.355-.648-.198-1.155-.706-1.354-1.355zm5.387 0c-.316 1.035-1.127 1.846-2.163 2.163 1.036.316 1.847 1.126 2.163 2.163.316-1.036 1.127-1.846 2.162-2.163-1.035-.317-1.845-1.128-2.162-2.163zm11.095 13.64c-.316 1.036-1.127 1.846-2.163 2.163 1.036.316 1.847 1.162 2.163 2.197.316-1.036 1.127-1.881 2.162-2.197-1.035-.317-1.846-1.127-2.162-2.163z"></path>
  </symbol>
  
  <symbol fill="var(--secondary)" xmlns="http://www.w3.org/2000/svg" fillRule="evenodd" clipRule="evenodd" viewBox="0 0 24 24" id="box-rocket">
    <path d="M17.281 8.991l3.706 1.97-2.261 2.013.011.006 2.25 3.09-2.25 1.228v3.096l-6.75 3.606-6.75-3.606v-3.091l-2.25-1.225 2.234-3.075-2.234-1.966 3.747-2.043c-.108.371-.197.808-.245 1.272l-1.769.964 1.181 1.04.624-.345c.056.339.146.672.279.984l-.823.456 6.028 3.124 5.978-3.119-.812-.451c.145-.299.245-.618.31-.944l.531.293 1.234-1.098-1.707-.907c-.05-.464-.146-.9-.262-1.272zm-4.798 8.217v5.393l5.256-2.807v-1.951l-3.502 1.91-1.754-2.545zm-6.247.639v1.947l5.249 2.804v-5.388l-1.748 2.543-3.501-1.906zm-1.772-2.103l4.96 2.7 1.099-1.599-4.983-2.582-1.076 1.481zm8.989 1.11l1.096 1.59 4.96-2.706-1.073-1.475-4.983 2.591zm-1.199-1.691h-.625l.003-2.728h.625l-.003 2.728zm-1.159-1.424h-.625l.009-1.739h.625l-.009 1.739zm2.358-.014h-.626l-.009-1.725h.625l.01 1.725zm-3.094-2.468l-.318-.734c-.732.269-2.155 2.284-2.155 2.284-1.195-2.607.161-4.846 1.243-5.659-.083-.699-.644-4.168 2.817-7.113l.041-.035.041.035c3.462 2.945 2.901 6.414 2.817 7.113 1.083.813 2.438 3.052 1.243 5.659 0 0-1.423-2.015-2.155-2.284l-.317.734-1.629.005-1.628-.005zm1.628-9.919c-1.093.923-2.432 3.393-1.854 6.223-.726.6-1.58 1.454-1.712 3.089.577-.77 1.419-1.21 2.091-1.356 0 0 .424.782.507.973l.968.003.969-.003c.083-.191.507-.973.507-.973.671.146 1.513.586 2.091 1.356-.133-1.635-.967-2.472-1.693-3.072.586-2.722-.771-5.295-1.861-6.229l-.013-.011zm-.044 5.693c-.284-.001-.515-.231-.515-.516 0-.285.231-.515.515-.515.284 0 .514.23.514.515 0 .285-.23.515-.514.516zm0-1.844c-.569 0-1.029-.462-1.03-1.031.001-.57.461-1.031 1.03-1.031s1.029.461 1.029 1.031c0 .569-.46 1.03-1.029 1.031zm0-1.434c.214 0 .388.174.388.389 0 .215-.174.389-.388.389-.215 0-.389-.174-.389-.389 0-.215.174-.389.389-.389z"></path>
  </symbol>


</svg>
