<svg width="0" height="0" class="hidden">
  <symbol id="rocket" xmlns="http://www.w3.org/2000/svg" viewBox="0 0 24 24">
    <path fill="var(--secondary)" d="M23.948.042c-.413-.028-.817-.042-1.214-.042-8.6 0-13.497 6.557-15.278 11.833l4.727 4.727c5.428-1.944 11.817-6.66 11.817-15.168 0-.44-.017-.89-.052-1.35zm-11.277 14.178l-2.883-2.883c1.221-2.859 4.691-8.945 12.199-9.32-.251 5.775-4.041 9.932-9.316 12.203zm5.471 1.538c-.547.373-1.09.71-1.628 1.011-.187.891-.662 1.842-1.351 2.652-.002-.576-.162-1.156-.443-1.738-.495.225-.966.418-1.414.588.66 1.709-.012 2.971-.915 4.154 1.296-.098 2.656-.732 3.728-1.805 1.155-1.155 1.967-2.823 2.023-4.862zm-11.82-6.469c-.579-.28-1.158-.438-1.732-.441.803-.681 1.744-1.153 2.626-1.345.314-.552.667-1.097 1.039-1.633-2.039.055-3.708.867-4.864 2.023-1.071 1.071-1.706 2.433-1.804 3.728 1.184-.904 2.446-1.576 4.155-.914.173-.471.366-.944.58-1.418zm7.738.663c-.391-.391-.391-1.023 0-1.414s1.023-.391 1.414 0c.391.392.391 1.024 0 1.415s-1.024.39-1.414-.001zm4.949-4.951c-.78-.78-2.047-.78-2.828 0-.781.781-.781 2.049 0 2.829.781.781 2.048.781 2.829 0 .78-.78.78-2.047-.001-2.829zm-1.908 1.911c-.273-.273-.273-.718 0-.99.271-.273.717-.273.99 0 .272.272.271.717 0 .99-.274.272-.718.272-.99 0zm-15.132 12.666l-.906-.906 5.208-5.188.906.906-5.208 5.188zm4.979 1.857l-.906-.906 3.636-3.664.906.906-3.636 3.664zm-6.042 2.565l-.906-.906 6.448-6.438.906.906-6.448 6.438z"></path>
  </symbol>

  <symbol xmlns="http://www.w3.org/2000/svg" viewBox="0 0 24 24" id="present">
    <path fill="var(--secondary)" d="M11 24h-9v-12h9v12zm0-18h-11v4h11v-4zm2 18h9v-12h-9v12zm0-18v4h11v-4h-11zm4.369-6c-2.947 0-4.671 3.477-5.369 5h5.345c3.493 0 3.53-5 .024-5zm-.796 3.621h-2.043c.739-1.121 1.439-1.966 2.342-1.966 1.172 0 1.228 1.966-.299 1.966zm-9.918 1.379h5.345c-.698-1.523-2.422-5-5.369-5-3.506 0-3.469 5 .024 5zm.473-3.345c.903 0 1.603.845 2.342 1.966h-2.043c-1.527 0-1.471-1.966-.299-1.966z"></path>
  </symbol>
  <symbol fill="var(--secondary)" xmlns="http://www.w3.org/2000/svg" fill-rule="evenodd" clip-rule="evenodd" viewBox="0 0 24 24" id="price-tag">
    <path d="M2 9.453v-9.453h9.352l10.648 10.625-3.794 3.794 1.849 4.733-12.34 4.848-5.715-14.547zm1.761 1.748l4.519 11.503 10.48-4.118-1.326-3.395-4.809 4.809-8.864-8.799zm-.761-10.201v8.036l9.622 9.552 7.963-7.962-9.647-9.626h-7.938zm12.25 8.293c-.415-.415-.865-.617-1.378-.617-.578 0-1.227.241-2.171.803-.682.411-1.118.585-1.456.585-.361 0-1.083-.409-.961-1.219.052-.345.25-.696.572-1.019.652-.652 1.544-.848 2.276-.107l.744-.744c-.476-.475-1.096-.792-1.761-.792-.566 0-1.125.228-1.663.677l-.626-.626-.698.699.653.652c-.569.826-.842 2.021.076 2.937 1.011 1.011 2.188.541 3.413-.232.6-.379 1.083-.563 1.475-.563.589.001 1.18.498 1.078 1.258-.052.386-.26.764-.621 1.122-.451.451-.904.679-1.347.679-.418 0-.747-.192-1.049-.462l-.739.739c.463.458 1.082.753 1.735.753.544 0 1.087-.201 1.612-.597l.54.538.697-.697-.52-.521c.743-.896 1.157-2.209.119-3.247zm-9.25-7.292c1.104 0 2 .896 2 2s-.896 2-2 2-2-.896-2-2 .896-2 2-2zm0 1c.552 0 1 .448 1 1s-.448 1-1 1-1-.448-1-1 .448-1 1-1z"></path>
  </symbol>
  <symbol fill="var(--secondary)" xmlns="http://www.w3.org/2000/svg" viewBox="0 0 24 24" id="shopping-bag">
    <path d="M2 22v-13h3v1.5c0 .276.224.5.5.5s.5-.224.5-.5v-1.5h6v1.5c0 .276.224.5.5.5s.5-.224.5-.5v-1.5h3v3h2v-5h-5v-3c0-2.209-1.791-4-4-4s-4 1.791-4 4v3h-5v17h16.69l-1.999-2h-12.691zm4-18c0-1.654 1.346-3 3-3s3 1.346 3 3v3h-6v-3zm13.899 15.899c.168.145.072.381-.132.618-.156.183-.305.283-.434.283l-.156-.06c-.157-.136-.089-.383.123-.625.144-.166.302-.276.44-.276l.159.06zm-1.421-5.899h-4.478v4.48l5.518 5.52 4.482-4.48-5.522-5.52zm-.447 3.364c.21-.245.479-.379.745-.379.188 0 .374.067.538.208.403.346.376.835.033 1.234-.234.272-.502.39-.752.39-.198 0-.385-.074-.534-.202-.354-.307-.407-.813-.03-1.251zm-2.031-.614c-.413 0-.75-.335-.75-.75s.338-.75.75-.75.75.335.75.75-.337.75-.75.75zm1.25 2.866l3.417-1.262.295.252-3.42 1.259-.292-.249zm2.944 1.225c-.233.272-.5.39-.75.39-.197 0-.384-.074-.533-.202-.353-.302-.405-.809-.032-1.25.21-.245.479-.379.745-.379.188 0 .374.066.539.208.402.345.377.834.031 1.233zm-1.864-2.516c-.158-.136-.09-.383.119-.627.144-.166.304-.275.442-.275l.157.059c.168.145.075.384-.128.621-.156.182-.307.283-.436.283l-.154-.061z"></path>
  </symbol>

  <symbol fill="var(--secondary)" xmlns="http://www.w3.org/2000/svg" viewBox="0 0 24 24" id="rocket2">
    <path d="M19.957 4.035c-.345-.024-.682-.035-1.012-.035-7.167 0-11.248 5.464-12.732 9.861l3.939 3.938c4.524-1.619 9.848-5.549 9.848-12.639 0-.367-.014-.741-.043-1.125zm-9.398 11.815l-2.402-2.402c1.018-2.383 3.91-7.455 10.166-7.767-.21 4.812-3.368 8.276-7.764 10.169zm4.559 1.282c-.456.311-.908.592-1.356.842-.156.742-.552 1.535-1.126 2.21-.001-.48-.135-.964-.369-1.449-.413.187-.805.348-1.179.49.551 1.424-.01 2.476-.763 3.462 1.08-.081 2.214-.61 3.106-1.504.965-.962 1.64-2.352 1.687-4.051zm-9.849-5.392c-.482-.232-.965-.364-1.443-.367.669-.567 1.453-.961 2.188-1.121.262-.461.556-.915.865-1.361-1.699.046-3.09.723-4.054 1.686-.893.893-1.421 2.027-1.503 3.106.986-.753 2.039-1.313 3.463-.762.145-.391.305-.785.484-1.181zm6.448.553c-.326-.325-.326-.853 0-1.178.325-.326.853-.326 1.178 0 .326.326.326.854 0 1.179-.326.325-.853.325-1.178-.001zm4.124-4.125c-.65-.65-1.706-.65-2.356 0-.651.651-.651 1.707 0 2.357.65.651 1.706.651 2.357 0 .65-.65.65-1.706-.001-2.357zm-1.591 1.592c-.228-.228-.228-.598 0-.825.227-.228.598-.228.826 0 .227.227.226.597 0 .825-.228.227-.598.227-.826 0zm-12.609 10.555l-.755-.755 4.341-4.323.755.755-4.341 4.323zm4.148 1.547l-.755-.755 3.03-3.054.756.755-3.031 3.054zm-5.034 2.138l-.755-.755 5.373-5.364.756.755-5.374 5.364zm21.083-14.291c-.188.618-.673 1.102-1.291 1.291.618.188 1.103.672 1.291 1.291.189-.619.673-1.103 1.291-1.291-.618-.188-1.102-.672-1.291-1.291zm-14.655-6.504c-.247.81-.881 1.443-1.69 1.69.81.247 1.443.881 1.69 1.69.248-.809.881-1.443 1.69-1.69-.81-.247-1.442-.88-1.69-1.69zm-1.827-3.205c-.199.649-.706 1.157-1.356 1.355.65.199 1.157.707 1.356 1.355.198-.649.706-1.157 1.354-1.355-.648-.198-1.155-.706-1.354-1.355zm5.387 0c-.316 1.035-1.127 1.846-2.163 2.163 1.036.316 1.847 1.126 2.163 2.163.316-1.036 1.127-1.846 2.162-2.163-1.035-.317-1.845-1.128-2.162-2.163zm11.095 13.64c-.316 1.036-1.127 1.846-2.163 2.163 1.036.316 1.847 1.162 2.163 2.197.316-1.036 1.127-1.881 2.162-2.197-1.035-.317-1.846-1.127-2.162-2.163z"></path>
  </symbol>

  <symbol fill="var(--secondary)" xmlns="http://www.w3.org/2000/svg" stroke-width="1px" stroke-linecap="round" stroke-linejoin="round" viewBox="0 0 85 83" id="rocket-launch">
    <path d="M23.53 58.69C23.53 61.63 22.64 63.62 20.84 64.64C19.56 65.37 17.42 65.4 14.42 64.73C11.42 64.05 7.28 62.61 2 60.38C2.72 54.74 3.54 50.47 4.46 47.59C5.39 44.72 6.49 42.91 7.77 42.18L8.34 41.9C10.02 41.22 12.01 41.52 14.31 42.82C16.87 44.27 19.05 46.54 20.84 49.64C22.64 52.73 23.53 55.75 23.53 58.69Z" stroke="black" stroke-linejoin="round"></path>
    <path d="M52.06 70.62C51.76 71.59 51.24 72.28 50.52 72.69L37.68 80.01L32.76 64.2C36.55 64.68 39.8 64.79 42.49 64.52C45.18 64.25 48.17 63.47 51.45 62.19L52.22 67.22C52.42 68.52 52.37 69.65 52.06 70.62Z" stroke="black" stroke-linejoin="round"></path>
    <path d="M62.44 25.92C61.02 24.82 59.56 23.84 58.08 22.99C54.33 20.82 50.37 19.46 46.22 18.89C45.08 18.74 43.97 18.64 42.89 18.62C40.2 18.56 37.66 18.89 35.27 19.62C34.46 19.87 33.66 20.16 32.88 20.51L32.73 20.58C32.06 20.87 31.4 21.2 30.76 21.57C28.18 23.04 25.94 24.9 24.05 27.15C23.83 27.4 23.62 27.66 23.42 27.92C21.48 30.4 19.93 33.31 18.78 36.67C18.72 36.84 18.66 36.99 18.61 37.15L22.87 44.52L27.53 52.59L30.61 57.92C31.53 58.11 32.44 58.27 33.34 58.39C36.04 58.74 38.64 58.75 41.14 58.4C44.48 57.95 47.55 56.91 50.37 55.3C53.25 53.66 55.67 51.44 57.6 48.65C58.7 47.08 59.65 45.32 60.44 43.38C61.87 39.9 62.65 36.23 62.78 32.37C62.87 30.28 62.75 28.13 62.44 25.92ZM48.53 43.83C48.46 43.87 48.39 43.91 48.31 43.94C47.18 44.48 45.8 44.28 44.18 43.35C43.32 42.86 42.53 42.23 41.81 41.48C41.81 41.48 41.81 41.47 41.8 41.47C41.08 40.71 40.42 39.82 39.84 38.81C39.43 38.11 39.1 37.42 38.84 36.73C38.32 35.4 38.07 34.09 38.07 32.8C38.07 30.93 38.6 29.65 39.66 28.96C39.72 28.91 39.78 28.87 39.84 28.84C41.01 28.17 42.46 28.33 44.18 29.32C45.9 30.31 47.35 31.82 48.53 33.86C49.7 35.89 50.29 37.89 50.29 39.86C50.29 41.83 49.7 43.15 48.53 43.83Z" stroke="black" stroke-linejoin="round"></path>
    <path d="M25.3 17.18C22.53 19.35 20.35 21.5 18.77 23.64C17.18 25.79 15.64 28.6 14.15 32.1L2.84998 20.01L15.77 12.65L16.13 12.47C16.76 12.22 17.49 12.17 18.3 12.35C19.28 12.56 20.28 13.08 21.3 13.9L25.3 17.18Z" stroke="black" stroke-linejoin="round"></path>
    <path d="M72.0601 60.62C71.7601 61.59 71.2401 62.28 70.5201 62.69L57.6801 70.01L37.6801 80.01L50.5201 72.69C51.2401 72.28 51.7601 71.59 52.0601 70.62C52.3701 69.65 52.4201 68.52 52.2201 67.22L51.4501 62.19L54.7401 60.55L71.4501 52.19L72.2201 57.22C72.4201 58.52 72.3701 59.65 72.0601 60.62Z" stroke="black" stroke-linejoin="round"></path>
    <path d="M50.29 39.86C50.29 41.83 49.7 43.15 48.53 43.83C48.46 43.87 48.39 43.91 48.31 43.94C47.18 44.48 45.8 44.28 44.18 43.35C43.32 42.86 42.53 42.23 41.81 41.48C41.81 41.48 41.81 41.47 41.8 41.47C41.08 40.71 40.42 39.82 39.84 38.81C39.43 38.11 39.1 37.42 38.84 36.73C38.32 35.4 38.07 34.09 38.07 32.8C38.07 30.93 38.6 29.65 39.66 28.96C39.72 28.91 39.78 28.87 39.84 28.84C41.01 28.17 42.46 28.33 44.18 29.32C45.9 30.31 47.35 31.82 48.53 33.86C49.7 35.89 50.29 37.89 50.29 39.86Z" stroke="black" stroke-linejoin="round"></path>
    <path d="M45.3 7.17999C42.53 9.34999 40.35 11.5 38.77 13.64C37.64 15.16 36.54 17.01 35.47 19.21L32.88 20.51L32.73 20.58C32.06 20.87 31.4 21.2 30.76 21.57C28.18 23.04 25.94 24.9 24.05 27.15L14.15 32.1C15.64 28.6 17.18 25.79 18.77 23.64C20.35 21.5 22.53 19.35 25.3 17.18L45.3 7.17999Z" stroke="black" stroke-linejoin="round"></path>
    <path d="M45.3 7.18L25.3 17.18L21.3 13.9C20.28 13.08 19.28 12.56 18.3 12.35C17.49 12.17 16.76 12.22 16.13 12.47L35.77 2.65C36.48 2.24 37.33 2.14001 38.3 2.35001C39.28 2.56001 40.28 3.08 41.3 3.9L45.3 7.18Z" stroke="black" stroke-linejoin="round"></path>
    <path d="M71.45 52.19L54.74 60.55L51.45 62.19C48.17 63.47 45.18 64.25 42.49 64.52C39.8 64.79 36.55 64.68 32.76 64.2L52.76 54.2C56.55 54.68 59.8 54.79 62.49 54.52C65.18 54.25 68.17 53.47 71.45 52.19Z" stroke="black" stroke-linejoin="round"></path>
    <path d="M82.44 15.92L62.44 25.92C61.02 24.82 59.56 23.84 58.08 22.99C54.33 20.82 50.37 19.46 46.22 18.89C45.08 18.74 43.97 18.64 42.89 18.62C40.2 18.56 37.66 18.89 35.27 19.62C34.46 19.87 33.66 20.16 32.88 20.51L35.47 19.22L50.76 11.57C55.27 9.00001 60.43 8.10002 66.22 8.89002C72.01 9.68002 77.42 12.02 82.44 15.92Z" stroke="black" stroke-linejoin="round"></path>
    <path d="M80.44 33.38C78.24 38.76 74.88 42.73 70.37 45.3C69.67 45.71 68.94 46.07 68.2 46.39L67.96 46.5L50.37 55.3C53.25 53.66 55.67 51.44 57.6 48.65C58.7 47.08 59.65 45.32 60.44 43.38C61.87 39.9 62.65 36.23 62.78 32.37C62.87 30.28 62.75 28.13 62.44 25.92L82.44 15.92C83.32 22.19 82.65 28.01 80.44 33.38Z" stroke="black" stroke-linejoin="round"></path>
    <path d="M23.53 58.69C23.53 55.75 22.64 52.73 20.84 49.64C19.05 46.54 16.87 44.27 14.31 42.82C12.01 41.52 10.02 41.22 8.34003 41.9L18.78 36.68C18.72 36.84 18.66 36.99 18.61 37.15L22.87 44.52L27.53 52.59L30.61 57.92C31.53 58.11 32.44 58.27 33.34 58.39L20.84 64.64C22.64 63.62 23.53 61.63 23.53 58.69Z" stroke="black" stroke-linejoin="round"></path>
  </symbol>



</svg>
