<svg xmlns="http://www.w3.org/2000/svg" id="Icons" height="512" fill="#fff" viewBox="0 0 74 74" width="512"><path d="m59.279 21.51a1 1 0 0 1 -.973-.771 18.784 18.784 0 0 0 -.892-2.8 1 1 0 1 1 1.883-.678 20.8 20.8 0 0 1 .956 3.022 1 1 0 0 1 -.744 1.2 1.016 1.016 0 0 1 -.23.027z"></path><path d="m47.83 54.32h-21.66a1 1 0 0 1 -1-1v-1.29c0-4.19-1.63-5.785-4.878-8.964a23.929 23.929 0 0 1 26.718-38.873 1 1 0 0 1 -.84 1.814 21.932 21.932 0 0 0 -24.519 35.593c3.34 3.269 5.519 5.4 5.519 10.433v.29h19.66v-.29c0-4.957 2.117-7.057 5.32-10.237l.315-.313a21.98 21.98 0 0 0 6.3-12.937 1 1 0 0 1 1.986.234 23.991 23.991 0 0 1 -6.875 14.12l-.317.314c-3.049 3.027-4.729 4.694-4.729 8.818v1.29a1 1 0 0 1 -1 .998z"></path><path d="m54.811 12.5a1 1 0 0 1 -.785-.379 19.531 19.531 0 0 0 -1.9-2.054 1 1 0 1 1 1.374-1.455 21.582 21.582 0 0 1 2.1 2.267 1 1 0 0 1 -.783 1.621z"></path><path d="m51.386 61.649h-28.772a1.586 1.586 0 0 1 -1.584-1.584v-6.158a1.586 1.586 0 0 1 1.584-1.584h28.772a1.586 1.586 0 0 1 1.584 1.584v6.158a1.586 1.586 0 0 1 -1.584 1.584zm-28.356-2h27.94v-5.326h-27.94z"></path><path d="m42.71 72h-11.42a3.37 3.37 0 0 1 -3.366-3.365v-7.986a1 1 0 0 1 1-1h16.152a1 1 0 0 1 1 1v7.986a3.37 3.37 0 0 1 -3.366 3.365zm-12.786-10.351v6.986a1.367 1.367 0 0 0 1.366 1.365h11.42a1.367 1.367 0 0 0 1.366-1.365v-6.986z"></path><path d="m50.275 66.821h-5.2a1 1 0 0 1 0-2h5.2a1 1 0 1 1 0 2z"></path><path d="m28.923 66.821h-5.2a1 1 0 1 1 0-2h5.2a1 1 0 1 1 0 2z"></path><path d="m37 32.688a1 1 0 0 1 -1-1v-.488c0-2.774 1.645-4.042 3.631-5.3a4.943 4.943 0 0 0 2.2-5.16 4.927 4.927 0 0 0 -9.751 1 1 1 0 0 1 -2 0 6.926 6.926 0 1 1 10.62 5.848c-1.837 1.163-2.7 1.9-2.7 3.611v.489a1 1 0 0 1 -1 1z"></path><path d="m37 38a1 1 0 0 1 -1-1v-1a1 1 0 0 1 2 0v1a1 1 0 0 1 -1 1z"></path></svg>