<svg xmlns="http://www.w3.org/2000/svg" id="Icons" fill="#fff" height="512" viewBox="0 0 74 74" width="512"><path d="m44.55 11.4a1 1 0 0 1 -.741-.328c-.08-.089-.169-.178-.251-.26a22.68 22.68 0 0 0 -1.865-1.672 1 1 0 0 1 1.253-1.56 24.912 24.912 0 0 1 2 1.793c.131.131.242.243.344.355a1 1 0 0 1 -.74 1.672z"></path><path d="m36.3 5.791a1.01 1.01 0 0 1 -.378-.075 21.1 21.1 0 0 0 -2.7-.908 1 1 0 0 1 .5-1.936 23.335 23.335 0 0 1 2.956.992 1 1 0 0 1 -.378 1.927z"></path><path d="m27.141 52.339a25.165 25.165 0 0 1 -1.441-50.288 1 1 0 0 1 .112 2 23.151 23.151 0 1 0 13.45 42.841 22.863 22.863 0 0 0 7.618-7.616 23.282 23.282 0 0 0 1.14-22.161 1 1 0 1 1 1.8-.87 25.293 25.293 0 0 1 -1.229 24.07 24.861 24.861 0 0 1 -8.284 8.285 25.069 25.069 0 0 1 -13.166 3.739z"></path><path d="m63.869 72c-.076 0-.151 0-.227 0a8.063 8.063 0 0 1 -5.837-2.7l-18.763-20.894a1 1 0 0 1 1.488-1.336l18.763 20.893a6.139 6.139 0 1 0 8.67-8.67l-20.893-18.763a1 1 0 1 1 1.336-1.488l20.894 18.763a8.139 8.139 0 0 1 -5.431 14.195z"></path><path d="m63.621 67.079a3.459 3.459 0 1 1 3.458-3.458 3.462 3.462 0 0 1 -3.458 3.458zm0-4.917a1.459 1.459 0 1 0 1.458 1.459 1.46 1.46 0 0 0 -1.458-1.459z"></path><path d="m27.156 35.6a21.534 21.534 0 0 1 -16.349-7.793 1 1 0 0 1 0-1.311 21.536 21.536 0 0 1 16.349-7.792 21.536 21.536 0 0 1 16.349 7.796 1 1 0 0 1 0 1.311 21.534 21.534 0 0 1 -16.349 7.789zm-14.248-8.444a19.418 19.418 0 0 0 14.248 6.444 19.418 19.418 0 0 0 14.244-6.444 19.418 19.418 0 0 0 -14.248-6.448 19.418 19.418 0 0 0 -14.244 6.448z"></path><path d="m27.156 35.6a8.443 8.443 0 1 1 8.444-8.444 8.453 8.453 0 0 1 -8.444 8.444zm0-14.886a6.443 6.443 0 1 0 6.444 6.442 6.451 6.451 0 0 0 -6.444-6.443z"></path><path d="m27.156 30.706a3.55 3.55 0 1 1 3.55-3.55 3.555 3.555 0 0 1 -3.55 3.55zm0-5.1a1.55 1.55 0 1 0 1.55 1.55 1.551 1.551 0 0 0 -1.55-1.55z"></path></svg>